<svg width="750" height="500" viewBox="0 0 750 500" fill="none" xmlns="http://www.w3.org/2000/svg">
<path d="M467 443.9C471.8 441.2 477.9 441.1 482.8 443.6C487.7 446.1 491.1 451.2 491.7 456.7C481.6 456.7 471.7 454.3 467 443.9Z" fill="#EBEBEB"/>
<path d="M506.9 411.1C507.6 418.1 504.5 425.5 498.9 429.9C493.3 434.3 485.5 435.7 478.8 433.5C482.1 419 494.1 413.6 506.9 411.1V411.1Z" fill="#EBEBEB"/>
<path d="M434.8 450.599C434.8 450.599 435 450.533 435.4 450.399C435.867 450.199 436.5 449.966 437.3 449.699C438.9 449.199 441.2 448.399 444 447.499C449.7 445.499 457.6 442.599 466 438.899C470.2 437.099 474.2 435.199 477.7 433.399C481.3 431.599 484.4 429.799 487 428.299C489.5 426.699 491.6 425.299 492.9 424.199C494.2 423.199 494.8 422.499 494.9 422.599C494.9 422.599 494.733 422.766 494.4 423.099C494.1 423.399 493.7 423.899 493 424.399C491.7 425.499 489.7 426.899 487.2 428.599C484.6 430.199 481.5 431.999 478 433.799C474.4 435.699 470.4 437.599 466.2 439.399C457.8 443.099 449.9 445.899 444.2 447.799C441.3 448.799 439 449.499 437.3 449.899C436.567 450.099 435.967 450.299 435.5 450.499C435.033 450.566 434.8 450.599 434.8 450.599Z" fill="#E0E0E0"/>
<path d="M480 449.7C479.9 449.8 478.7 449 476.7 447.9C474.7 446.8 471.8 445.5 468.5 444.6C465.1 443.7 461.9 443.3 459.6 443.2C457.4 443.1 455.9 443.3 455.9 443.2C455.9 443.1 456.3 443.1 456.9 443C457.6 442.9 458.5 442.9 459.7 442.9C462 442.9 465.2 443.2 468.6 444.1C472 445 474.9 446.4 476.9 447.6C477.9 448.2 478.7 448.7 479.2 449.1C479.7 449.5 480 449.7 480 449.7V449.7Z" fill="#E0E0E0"/>
<path d="M262.4 433.099C255.5 433.499 248.5 430.099 244.4 424.499C240.3 418.899 239.3 411.299 241.7 404.799C255.7 408.599 260.5 420.499 262.4 433.099Z" fill="#EBEBEB"/>
<path d="M239.8 398.6C239.8 398.6 240.2 400 240.9 402.2C241.6 404.4 242.8 407.3 244.5 410.4C246.1 413.6 248 416.2 249.4 418C250.8 419.8 251.8 420.9 251.7 420.9C251.7 421 251.4 420.7 251 420.3C250.5 419.8 249.9 419.1 249.1 418.2C247.6 416.5 245.7 413.8 244 410.7C242.3 407.6 241.2 404.5 240.6 402.3C240.2 401.2 240 400.2 239.9 399.6C239.8 399 239.7 398.6 239.8 398.6V398.6Z" fill="#E0E0E0"/>
<path d="M74 196.4C63.2 196.9 52.4 191.7 46.1 183.1C39.7 174.4 38.1 162.5 41.9 152.4C63.5 158.4 71 176.9 74 196.4Z" fill="#EBEBEB"/>
<path d="M38.8 142.9C38.9 142.9 39 143.4 39.3 144.4C39.6 145.3 40 146.7 40.5 148.4C41.6 151.8 43.4 156.5 46 161.3C48.6 166.1 51.4 170.2 53.7 173C54.8 174.4 55.7 175.5 56.4 176.2C57 177 57.4 177.4 57.4 177.5C57.3 177.5 56.9 177.1 56.2 176.4C55.5 175.7 54.6 174.6 53.4 173.2C51.1 170.5 48.1 166.4 45.5 161.5C42.9 156.7 41.2 152 40.2 148.5C39.7 146.8 39.3 145.4 39.1 144.4C38.9 143.4 38.8 142.9 38.8 142.9V142.9Z" fill="#E0E0E0"/>
<path d="M79.1 386.4C72.9 383.2 68.6 376.8 67.9 369.9C67.3 363 70.3 355.8 75.7 351.5C85.7 361.9 83.8 374.6 79.1 386.4Z" fill="#EBEBEB"/>
<path d="M77.1 345.199C77.2 345.199 76.8 346.599 76.3 348.799C75.8 351.099 75.3 354.199 75.1 357.799C75 361.299 75.2 364.499 75.5 366.799C75.8 369.099 76.1 370.499 76.1 370.499C76 370.499 75.9 370.099 75.8 369.499C75.6 368.899 75.4 367.999 75.2 366.799C74.8 364.499 74.5 361.299 74.6 357.699C74.8 354.199 75.3 350.999 75.9 348.699C76.2 347.599 76.5 346.699 76.7 346.099C76.9 345.499 77.1 345.199 77.1 345.199V345.199Z" fill="#E0E0E0"/>
<path d="M291.6 80.9004C291.2 87.9004 287.2 94.5004 281.2 98.0004C275.2 101.5 267.5 101.7 261.3 98.6004C266.5 85.1004 278.9 81.6004 291.6 80.9004V80.9004Z" fill="#EBEBEB"/>
<path d="M254.9 100.001C254.9 99.9008 256.3 99.7008 258.6 99.2008C260.8 98.7008 263.9 97.8008 267.2 96.5008C270.4 95.1008 273.2 93.6008 275.2 92.4008C277.1 91.1008 278.3 90.3008 278.4 90.3008C278.4 90.4008 278.1 90.6008 277.6 91.0008C277.1 91.4008 276.4 92.0008 275.4 92.7008C273.5 94.0008 270.7 95.6008 267.4 97.0008C264.1 98.3008 260.9 99.1008 258.7 99.5008C257.5 99.7008 256.6 99.9008 255.9 99.9008C255.3 100.001 254.9 100.001 254.9 100.001V100.001Z" fill="#E0E0E0"/>
<path d="M252.1 53.5996C257.4 61.0996 258.6 71.1996 255.3 79.6996C252 88.2996 244.3 94.8996 235.3 96.7996C229.6 78.5996 239.5 64.6996 252.1 53.5996V53.5996Z" fill="#EBEBEB"/>
<path d="M229.9 103.399C229.9 103.399 230.2 102.999 230.7 102.399C231.3 101.699 232.1 100.799 233.1 99.5992C235 97.1992 237.5 93.7992 239.8 89.7992C242 85.6992 243.6 81.7992 244.6 78.8992C245.1 77.4992 245.5 76.2992 245.7 75.4992C246 74.5992 246.1 74.1992 246.1 74.1992C246.2 74.1992 246.1 74.6992 245.9 75.4992C245.7 76.3992 245.4 77.5992 244.9 78.9992C244 81.9992 242.5 85.8992 240.2 89.9992C237.9 94.0992 235.4 97.4992 233.4 99.7992C232.3 100.999 231.5 101.899 230.9 102.499C230.3 103.099 229.9 103.399 229.9 103.399V103.399Z" fill="#E0E0E0"/>
<path d="M338.4 441.699C335.7 444.899 331.4 446.699 327.2 446.199C323.1 445.799 319.3 443.099 317.4 439.399C324.7 434.699 332 437.499 338.4 441.699Z" fill="#EBEBEB"/>
<path d="M313.8 437.7C313.9 437.6 316.9 439.3 321 440.4C325.1 441.4 328.6 441.3 328.6 441.5C328.6 441.6 327.7 441.7 326.3 441.6C324.9 441.6 323 441.4 320.9 440.9C318.8 440.3 317 439.6 315.8 438.9C314.5 438.3 313.8 437.8 313.8 437.7V437.7Z" fill="#E0E0E0"/>
<path d="M431.1 78.5995C429.1 82.2995 425.2 84.7995 421.1 85.0995C416.9 85.4995 412.6 83.5995 410.1 80.2995C416.4 74.3995 424.1 75.5995 431.1 78.5995Z" fill="#EBEBEB"/>
<path d="M406.3 79.3993C406.3 79.1993 409.6 80.3993 413.8 80.5993C418.1 80.8993 421.5 80.0993 421.5 80.2993C421.5 80.2993 420.7 80.5993 419.3 80.7993C417.9 81.0993 416 81.1993 413.8 81.0993C411.7 80.9993 409.8 80.5993 408.4 80.1993C407.1 79.7993 406.3 79.4993 406.3 79.3993Z" fill="#E0E0E0"/>
<path d="M676.7 87.9004C677.6 94.8004 674.9 102.1 669.7 106.6C664.5 111.2 657 112.9 650.3 111.1C652.9 96.9004 664.3 91.0004 676.7 87.9004Z" fill="#EBEBEB"/>
<path d="M644.3 113.6C644.3 113.5 645.7 113.1 647.8 112.1C649.9 111.2 652.8 109.8 655.7 107.9C658.6 105.9 661.1 103.9 662.8 102.3C664.5 100.7 665.4 99.5997 665.5 99.6997C665.5 99.6997 665.3 99.9997 664.9 100.5C664.5 101 663.8 101.7 663 102.5C661.4 104.2 659 106.3 656 108.3C653 110.3 650.1 111.6 647.9 112.5C646.8 112.9 645.9 113.2 645.3 113.4C644.7 113.6 644.3 113.6 644.3 113.6V113.6Z" fill="#E0E0E0"/>
<path d="M695.1 358.6C702.3 368.3 704.2 381.6 700 393C695.8 404.3 685.7 413.2 674 415.9C666.1 392 678.7 373.5 695.1 358.6V358.6Z" fill="#EBEBEB"/>
<path d="M666.9 424.699C666.9 424.699 667.3 424.199 668 423.299C668.8 422.499 669.8 421.199 671.1 419.699C672.3 418.099 673.8 416.199 675.3 413.999C676.7 411.699 678.3 409.299 679.7 406.599C681.2 403.799 682.4 401.199 683.4 398.699C684.4 396.299 685.3 393.999 685.9 392.099C686.5 390.199 687 388.599 687.2 387.499C687.5 386.399 687.7 385.799 687.8 385.899C687.8 385.899 687.7 386.499 687.4 387.599C687.2 388.699 686.8 390.299 686.2 392.199C685.7 394.199 684.9 396.399 683.9 398.899C682.9 401.399 681.6 404.099 680.2 406.799C678.7 409.499 677.2 411.999 675.7 414.199C674.1 416.399 672.7 418.299 671.4 419.899C670.1 421.399 669 422.699 668.2 423.499C667.4 424.299 666.9 424.699 666.9 424.699V424.699Z" fill="#E0E0E0"/>
<path d="M501.9 385.9C475 409.5 438.2 420.2 402.4 419.4C366.7 418.5 306.7 410.3 276.1 391.8C240 369.9 227 357.4 207.2 327C187.7 297 178.8 257.8 180.5 224.2L180.8 214.3C188.7 181.8 205.9 150.1 234.3 132.6C262.7 115 303.4 115.4 326.7 139.3C343.7 156.6 349.1 182.5 365.1 200.7C375.9 213 391.3 221.1 407.6 223.1C426.9 225.4 446.5 219.3 465.9 220.9C501.6 223.8 531.9 254.6 538.2 289.8C544.5 325 528.9 362.3 501.9 385.9V385.9Z" fill="#F97316"/>
<g opacity="0.8">
<path opacity="0.8" d="M501.9 385.9C475 409.5 438.2 420.2 402.4 419.4C366.7 418.5 306.7 410.3 276.1 391.8C240 369.9 227 357.4 207.2 327C187.7 297 178.8 257.8 180.5 224.2L180.8 214.3C188.7 181.8 205.9 150.1 234.3 132.6C262.7 115 303.4 115.4 326.7 139.3C343.7 156.6 349.1 182.5 365.1 200.7C375.9 213 391.3 221.1 407.6 223.1C426.9 225.4 446.5 219.3 465.9 220.9C501.6 223.8 531.9 254.6 538.2 289.8C544.5 325 528.9 362.3 501.9 385.9V385.9Z" fill="white"/>
</g>
<path d="M573.5 412.999C573.6 422.499 565.9 430.299 556.4 430.399C546.9 430.499 539.1 422.799 539 413.299C538.9 403.799 546.5 395.999 556.1 395.899C565.6 395.799 573.4 403.499 573.5 412.999Z" fill="#F97316"/>
<path opacity="0.8" d="M573.5 412.999C573.6 422.499 565.9 430.299 556.4 430.399C546.9 430.499 539.1 422.799 539 413.299C538.9 403.799 546.5 395.999 556.1 395.899C565.6 395.799 573.4 403.499 573.5 412.999Z" fill="white"/>
<path fill-rule="evenodd" clip-rule="evenodd" d="M435.2 280.499C435.533 314.899 428 341.199 412.6 359.399C397.267 377.599 376.267 386.833 349.6 387.099C322.8 387.366 301.5 378.533 285.7 360.599C269.9 342.733 261.833 316.566 261.5 282.099L260.9 221.599C260.567 187.266 268.067 160.933 283.4 142.599C298.733 124.266 319.8 114.966 346.6 114.699C373.267 114.433 394.533 123.333 410.4 141.399C426.2 159.399 434.267 185.566 434.6 219.899L435.2 280.499ZM390.3 213.599C390.1 191.933 386.333 175.899 379 165.499C371.6 155.166 360.933 150.066 347 150.199C333.067 150.333 322.533 155.633 315.4 166.099C308.267 176.633 304.833 192.733 305.1 214.399L305.8 287.999C306 309.799 309.8 325.899 317.2 336.299C324.667 346.699 335.367 351.833 349.3 351.699C363.233 351.566 373.733 346.266 380.8 335.799C387.867 325.266 391.3 309.066 391.1 287.199L390.3 213.599Z" fill="#F97316"/>
<g opacity="0.4">
<path opacity="0.4" fill-rule="evenodd" clip-rule="evenodd" d="M435.2 280.499C435.533 314.899 428 341.199 412.6 359.399C397.267 377.599 376.267 386.833 349.6 387.099C322.8 387.366 301.5 378.533 285.7 360.599C269.9 342.733 261.833 316.566 261.5 282.099L260.9 221.599C260.567 187.266 268.067 160.933 283.4 142.599C298.733 124.266 319.8 114.966 346.6 114.699C373.267 114.433 394.533 123.333 410.4 141.399C426.2 159.399 434.267 185.566 434.6 219.899L435.2 280.499ZM390.3 213.599C390.1 191.933 386.333 175.899 379 165.499C371.6 155.166 360.933 150.066 347 150.199C333.067 150.333 322.533 155.633 315.4 166.099C308.267 176.633 304.833 192.733 305.1 214.399L305.8 287.999C306 309.799 309.8 325.899 317.2 336.299C324.667 346.699 335.367 351.833 349.3 351.699C363.233 351.566 373.733 346.266 380.8 335.799C387.867 325.266 391.3 309.066 391.1 287.199L390.3 213.599Z" fill="black"/>
</g>
<path fill-rule="evenodd" clip-rule="evenodd" d="M460.6 280.2C460.933 314.667 453.433 341 438.1 359.2C422.767 377.4 401.767 386.633 375.1 386.9C348.3 387.167 327 378.333 311.2 360.4C295.333 342.467 287.267 316.3 287 281.9L286.4 221.3C286.067 187.033 293.567 160.733 308.9 142.4C324.233 124 345.3 114.7 372.1 114.5C398.767 114.233 420 123.1 435.8 141.1C451.6 159.167 459.667 185.333 460 219.6L460.6 280.2ZM415.8 213.3C415.6 191.633 411.8 175.633 404.4 165.3C397.067 154.967 386.433 149.867 372.5 150C358.5 150.133 347.967 155.433 340.9 165.9C333.767 176.367 330.3 192.433 330.5 214.1L331.2 287.7C331.4 309.5 335.233 325.6 342.7 336C350.1 346.467 360.8 351.633 374.8 351.5C388.733 351.367 399.2 346.033 406.2 335.5C413.267 325.033 416.7 308.833 416.5 286.9L415.8 213.3Z" fill="#F97316"/>
<path d="M286.6 224.9C286.6 225.1 280.7 227.4 273.3 230.2C266 232.9 260 235 260 234.9C259.9 234.8 265.8 232.4 273.2 229.7C280.5 226.9 286.5 224.8 286.6 224.9V224.9Z" fill="#F97316"/>
<path d="M288 248.8C288.1 249 282.2 251.3 274.8 254.1C267.5 256.8 261.5 259 261.4 258.8C261.4 258.7 267.3 256.4 274.6 253.6C282 250.8 288 248.7 288 248.8Z" fill="#F97316"/>
<path d="M289.5 272.8C289.5 272.9 283.6 275.3 276.3 278C268.9 280.8 262.9 282.9 262.9 282.8C262.8 282.6 268.8 280.3 276.1 277.5C283.4 274.8 289.4 272.6 289.5 272.8Z" fill="#F97316"/>
<path d="M291 296.701C291 296.801 285.1 299.201 277.8 301.901C270.4 304.701 264.4 306.801 264.4 306.701C264.3 306.601 270.2 304.201 277.6 301.501C284.9 298.701 290.9 296.601 291 296.701Z" fill="#F97316"/>
<path d="M292.4 320.6C292.4 320.7 292.1 320.8 291.5 321.1C290.9 321.3 290 321.7 288.9 322.1C286.8 323 283.8 324.2 280.4 325.4C277.1 326.7 274 327.8 271.8 328.6C270.7 329 269.8 329.3 269.2 329.5C268.6 329.7 268.2 329.8 268.2 329.7C268.2 329.7 268.5 329.5 269.1 329.3C269.7 329 270.6 328.7 271.7 328.2C273.9 327.4 276.9 326.2 280.2 324.9C283.6 323.7 286.6 322.6 288.8 321.8C289.9 321.4 290.8 321.1 291.4 320.9C292.1 320.7 292.4 320.6 292.4 320.6V320.6Z" fill="#F97316"/>
<path d="M299.3 342.5C299.3 342.6 298.1 343.1 296.2 343.9C294.3 344.6 291.7 345.6 288.8 346.7C285.9 347.8 283.2 348.8 281.3 349.5C279.4 350.1 278.2 350.5 278.2 350.5C278.1 350.4 279.3 349.9 281.2 349.1C283.1 348.4 285.7 347.3 288.6 346.2C291.5 345.2 294.2 344.2 296.1 343.5C298 342.8 299.2 342.5 299.3 342.5V342.5Z" fill="#F97316"/>
<path d="M313.9 362.599C313.9 362.699 312.9 363.099 311.2 363.799C309.5 364.499 307.2 365.399 304.6 366.399C302 367.399 299.6 368.199 297.9 368.799C296.2 369.399 295.1 369.699 295.1 369.699C295.1 369.599 296.1 369.199 297.8 368.499C299.5 367.799 301.8 366.899 304.4 365.899C307 364.899 309.3 364.099 311.1 363.499C312.8 362.899 313.9 362.499 313.9 362.599Z" fill="#F97316"/>
<path d="M338.2 375.8C338.2 375.8 337.2 376.3 335.5 377C333.8 377.7 331.5 378.6 328.9 379.6C326.3 380.5 323.9 381.4 322.2 382C320.5 382.6 319.4 382.9 319.4 382.8C319.4 382.8 320.4 382.3 322.1 381.6C323.8 381 326.1 380 328.7 379.1C331.3 378.1 333.7 377.2 335.4 376.6C337.1 376 338.2 375.7 338.2 375.8Z" fill="#F97316"/>
<path d="M411.5 324.699C411.6 324.799 404 328.399 394.6 332.599C385.1 336.899 377.5 340.199 377.4 340.099C377.3 339.899 384.9 336.399 394.4 332.099C403.8 327.899 411.5 324.599 411.5 324.699V324.699Z" fill="#F97316"/>
<path d="M416.5 304.2C416.6 304.3 410.3 307.3 402.5 310.8C394.7 314.3 388.4 317 388.3 316.9C388.2 316.8 394.5 313.8 402.3 310.3C410.1 306.8 416.4 304.1 416.5 304.2Z" fill="#F97316"/>
<path d="M418.8 281.2C418.9 281.3 412.6 284.3 404.8 287.8C397 291.3 390.6 294 390.6 293.9C390.5 293.7 396.8 290.8 404.6 287.3C412.4 283.8 418.7 281 418.8 281.2Z" fill="#F97316"/>
<path d="M421.1 258.1C421.1 258.3 414.9 261.2 407.1 264.7C399.3 268.2 392.9 271 392.9 270.8C392.8 270.7 399.1 267.7 406.9 264.2C414.7 260.7 421 258 421.1 258.1Z" fill="#F97316"/>
<path d="M423.4 235.1C423.4 235.2 417.2 238.2 409.4 241.7C401.6 245.2 395.2 247.9 395.2 247.8C395.1 247.7 401.4 244.7 409.2 241.2C417 237.7 423.3 235 423.4 235.1Z" fill="#F97316"/>
<path d="M418.8 214.6C418.9 214.7 412.6 217.7 404.8 221.2C397 224.7 390.6 227.4 390.6 227.3C390.5 227.1 396.8 224.2 404.6 220.7C412.4 217.2 418.7 214.5 418.8 214.6Z" fill="#F97316"/>
<path d="M418.8 192.501C418.9 192.701 412.6 195.601 404.8 199.101C397 202.601 390.6 205.301 390.6 205.201C390.5 205.101 396.8 202.101 404.6 198.601C412.4 195.101 418.7 192.401 418.8 192.501Z" fill="#F97316"/>
<path d="M416.5 171.7C416.6 171.9 410.3 174.8 402.5 178.3C394.7 181.8 388.4 184.5 388.3 184.4C388.2 184.3 394.5 181.3 402.3 177.8C410.1 174.3 416.4 171.6 416.5 171.7Z" fill="#F97316"/>
<path d="M396.7 157.2C396.8 157.4 393 159.2 388.3 161.3C383.5 163.5 379.7 165.1 379.6 165C379.5 164.8 383.3 163 388.1 160.9C392.8 158.7 396.7 157.1 396.7 157.2V157.2Z" fill="#F97316"/>
<path d="M386.2 148.401C386.2 148.501 382.5 150.301 377.7 152.501C373 154.601 369.1 156.201 369 156.101C369 156.001 372.8 154.101 377.5 152.001C382.2 149.901 386.1 148.201 386.2 148.401Z" fill="#F97316"/>
<path d="M287.7 195.9C287.7 196 281.8 198.4 274.5 201.2C267.1 203.9 261.1 206 261.1 205.9C261 205.8 267 203.4 274.3 200.7C281.6 197.9 287.6 195.8 287.7 195.9Z" fill="#F97316"/>
<path d="M295 166.1C295.1 166.2 288.7 168.7 280.7 171.7C272.8 174.7 266.3 177 266.2 176.9C266.2 176.8 272.6 174.2 280.5 171.2C288.5 168.2 295 165.9 295 166.1Z" fill="#F97316"/>
<path d="M314.3 136.5C314.3 136.7 306.2 139.8 296.1 143.6C286 147.4 277.8 150.4 277.8 150.2C277.7 150.1 285.8 146.9 295.9 143.1C306 139.4 314.2 136.4 314.3 136.5Z" fill="#F97316"/>
<path d="M456.3 325C456.3 325.067 456.167 325.034 455.9 324.9C455.633 324.767 455.233 324.6 454.7 324.4C454.2 324.2 453.5 324.1 452.7 323.9C451.9 323.8 450.9 323.5 449.8 323.5C445.6 323.2 439.2 324.8 433 329.4C429.8 331.7 426.9 334.8 424 338.3C421.2 341.8 418.4 345.7 415.2 349.8C412 353.7 408.3 357.8 403.7 360.9C399 364.1 393.6 366.3 387.7 367.4C381.9 368.5 376 368.2 370.5 366.8C365.1 365.5 360.1 363.4 355.5 361.2C350.8 359.1 346.5 356.9 342.3 355.1C338.2 353.2 334.2 351.9 330.4 351C326.6 350.2 323.2 349.8 320.1 349.8C317 349.9 314.4 350.3 312.4 350.9C310.3 351.5 308.7 352.2 307.7 352.7C307.233 352.967 306.867 353.167 306.6 353.3C306.333 353.434 306.2 353.5 306.2 353.5C306.2 353.5 306.333 353.4 306.6 353.2C306.867 353.067 307.233 352.867 307.7 352.6C308.7 352 310.2 351.3 312.3 350.7C314.4 350.1 317 349.6 320.1 349.5C323.2 349.5 326.7 349.8 330.5 350.7C334.3 351.5 338.3 352.8 342.5 354.7C346.7 356.5 351 358.7 355.7 360.8C360.3 362.9 365.3 365 370.6 366.3C376 367.6 381.8 367.9 387.6 366.9C393.4 365.8 398.8 363.6 403.4 360.5C408 357.4 411.6 353.4 414.8 349.5C418 345.5 420.8 341.5 423.7 338C426.6 334.5 429.6 331.4 432.8 329.1C439 324.5 445.5 323 449.8 323.3C450.9 323.3 451.9 323.6 452.7 323.7C453.5 324 454.2 324.1 454.7 324.3C455.233 324.567 455.633 324.767 455.9 324.9C456.167 324.967 456.3 325 456.3 325V325Z" fill="white"/>
<path d="M462.6 258.301C462.6 258.401 461.9 258.401 460.7 258.901C459.4 259.301 457.7 260.101 455.8 261.401C453.9 262.801 451.9 264.601 449.4 266.601C447 268.501 444.1 270.301 440.8 271.801C434.4 275.001 427.8 276.201 423.2 276.401C422 276.501 420.9 276.501 420 276.501C419.067 276.434 418.267 276.401 417.6 276.401C417 276.334 416.5 276.267 416.1 276.201C415.767 276.201 415.6 276.167 415.6 276.101C415.6 276.101 415.767 276.101 416.1 276.101C416.5 276.101 417 276.134 417.6 276.201C418.333 276.201 419.133 276.201 420 276.201C420.9 276.101 422 276.201 423.2 276.001C427.8 275.701 434.2 274.501 440.6 271.401C443.8 269.801 446.7 268.001 449.1 266.201C451.6 264.301 453.7 262.401 455.6 261.101C457.6 259.801 459.3 259.001 460.6 258.701C461.267 258.501 461.767 258.367 462.1 258.301C462.433 258.301 462.6 258.301 462.6 258.301V258.301Z" fill="white"/>
<path d="M332 281.501C332 281.501 331.8 281.467 331.4 281.401C331.1 281.301 330.6 281.201 329.9 281.001C328.6 280.701 326.7 280.001 324.5 278.701C322.4 277.401 320 275.701 317.5 273.601C315 271.501 312.3 269.101 309.3 267.001C306.2 264.901 302.9 263.401 299.8 262.701C296.6 261.901 293.7 261.701 291.3 261.801C288.8 262.001 286.9 262.401 285.5 262.701C284.2 263.101 283.5 263.301 283.5 263.301C283.5 263.234 283.667 263.134 284 263.001C284.3 262.901 284.8 262.701 285.5 262.501C286.8 262.101 288.8 261.701 291.2 261.501C293.7 261.301 296.7 261.401 299.9 262.201C303.1 262.901 306.4 264.401 309.6 266.601C312.7 268.701 315.4 271.101 317.8 273.201C320.3 275.301 322.6 277.101 324.7 278.401C326.8 279.701 328.7 280.401 330 280.801C331.3 281.201 332 281.401 332 281.501V281.501Z" fill="white"/>
<path d="M332.2 186.901C332.2 187.001 331.6 187.201 330.5 187.601C329.967 187.734 329.3 187.901 328.5 188.101C327.7 188.301 326.8 188.601 325.8 188.801C324.8 189.001 323.7 189.201 322.5 189.401C321.3 189.601 320.1 189.701 318.7 189.801C316 189.901 313 190.001 309.9 189.701C306.8 189.401 303.9 188.801 301.2 188.101C299.9 187.801 298.7 187.401 297.6 187.001C296.4 186.601 295.4 186.201 294.4 185.801C293.5 185.501 292.6 185.001 291.9 184.701C291.167 184.367 290.567 184.034 290.1 183.701C289.1 183.201 288.5 182.901 288.5 182.801C288.5 182.801 289.1 183.101 290.1 183.601C290.633 183.867 291.267 184.134 292 184.401C292.8 184.801 293.6 185.201 294.6 185.501C295.5 185.901 296.5 186.301 297.7 186.601C298.8 187.001 300.1 187.301 301.3 187.701C304 188.301 306.9 188.901 309.9 189.201C313 189.401 316 189.401 318.7 189.301C320 189.201 321.3 189.101 322.5 188.901C323.7 188.801 324.8 188.601 325.7 188.401C326.8 188.301 327.6 188.001 328.4 187.901C329.2 187.701 329.867 187.534 330.4 187.401C331.5 187.101 332.2 186.901 332.2 186.901V186.901Z" fill="white"/>
<path d="M456.9 186.701C456.9 186.701 456.767 186.634 456.5 186.501C456.167 186.301 455.8 186.067 455.4 185.801C454.9 185.501 454.2 185.101 453.5 184.801C452.8 184.401 451.9 184.001 451 183.601C450.467 183.401 449.967 183.201 449.5 183.001C448.9 182.801 448.4 182.601 447.8 182.401C446.7 182.001 445.4 181.701 444.1 181.401C441.4 180.801 438.4 180.401 435.2 180.301C432.1 180.301 429.1 180.701 426.4 181.201C425 181.501 423.8 181.801 422.6 182.201C422 182.401 421.5 182.501 420.9 182.701C420.433 182.901 419.933 183.101 419.4 183.301C418.5 183.701 417.6 184.101 416.9 184.501C416.1 184.801 415.5 185.201 415 185.501C414.533 185.701 414.133 185.901 413.8 186.101C413.533 186.234 413.4 186.301 413.4 186.301C413.4 186.301 413.533 186.201 413.8 186.001C414.067 185.801 414.433 185.567 414.9 185.301C415.4 185.001 416 184.601 416.7 184.201C417.5 183.801 418.3 183.401 419.3 183.001C419.767 182.801 420.267 182.601 420.8 182.401C421.3 182.101 421.9 182.001 422.5 181.801C423.6 181.401 424.9 181.101 426.3 180.701C429 180.201 432 179.801 435.2 179.801C438.4 179.801 441.5 180.301 444.2 180.901C445.5 181.201 446.8 181.601 447.9 182.001C448.5 182.201 449.1 182.401 449.6 182.601C450.133 182.867 450.633 183.101 451.1 183.301C452.1 183.701 452.9 184.201 453.6 184.501C454.4 184.901 455 185.301 455.5 185.601C455.9 185.934 456.267 186.201 456.6 186.401C456.867 186.601 456.967 186.701 456.9 186.701V186.701Z" fill="white"/>
<path d="M395.8 118.799C395.8 118.799 395.567 118.933 395.1 119.199C394.567 119.466 393.867 119.833 393 120.299C391.1 121.299 388.4 122.699 385.1 124.399C378.4 127.699 369 132.299 357.8 135.099C352.2 136.499 346.8 137.199 341.8 137.299C336.9 137.399 332.4 136.999 328.7 136.199C325 135.399 322.1 134.399 320.2 133.599C319.2 133.199 318.5 132.799 318 132.599C317.533 132.333 317.3 132.199 317.3 132.199C317.3 132.199 317.567 132.299 318.1 132.499C318.6 132.699 319.3 132.999 320.3 133.399C322.2 134.199 325.1 135.099 328.8 135.799C332.4 136.499 336.9 136.999 341.8 136.799C346.8 136.699 352.2 135.899 357.7 134.599C368.8 131.799 378.2 127.299 384.9 124.099C388.2 122.399 390.9 121.099 392.9 120.199C393.767 119.733 394.467 119.366 395 119.099C395.533 118.833 395.8 118.733 395.8 118.799V118.799Z" fill="white"/>
<path fill-rule="evenodd" clip-rule="evenodd" d="M195.1 292.999L228.5 294.499L226.9 329.899L193.5 328.399L190.9 387.299L147 385.399L149.5 326.499L36 321.599L36.1 294.599L157.1 120.799L202.5 122.799L195.1 292.999ZM80.1 287.899L151.1 290.999L155.8 183.699L154.7 183.199L150.8 190.899L80.1 287.899Z" fill="#F97316"/>
<g opacity="0.4">
<path opacity="0.4" fill-rule="evenodd" clip-rule="evenodd" d="M195.1 292.999L228.5 294.499L226.9 329.899L193.5 328.399L190.9 387.299L147 385.399L149.5 326.499L36 321.599L36.1 294.599L157.1 120.799L202.5 122.799L195.1 292.999ZM80.1 287.899L151.1 290.999L155.8 183.699L154.7 183.199L150.8 190.899L80.1 287.899Z" fill="black"/>
</g>
<path fill-rule="evenodd" clip-rule="evenodd" d="M223 294.198L256.4 295.698L254.9 331.098L221.5 329.598L218.9 388.498L174.9 386.598L177.5 327.698L63.9 322.798L64 295.798L185 121.998L230.4 123.998L223 294.198ZM108 289.198L179.1 292.298L183.8 184.898L182.7 184.498L178.7 192.098L108 289.198Z" fill="#F97316"/>
<path d="M64.6 300.898C64.6 300.998 64.2 301.198 63.5 301.498C62.8 301.898 61.8 302.398 60.5 302.998C57.9 304.198 54.3 305.798 50.3 307.498C46.3 309.198 42.6 310.598 40 311.698C38.6 312.198 37.6 312.598 36.8 312.798C36.1 313.098 35.6 313.198 35.6 313.198C35.6 313.098 36 312.898 36.7 312.598C37.5667 312.265 38.6 311.832 39.8 311.298C42.6 310.198 46.1 308.698 50.1 306.998C54 305.298 57.6 303.798 60.3 302.698C61.5667 302.165 62.6 301.698 63.4 301.298C64.2 300.998 64.6 300.898 64.6 300.898Z" fill="#F97316"/>
<path d="M80.9 270.998C80.9 270.998 80.3 271.298 79.4 271.798C78.4 272.298 76.9 272.898 75.2 273.698C71.6 275.398 66.6 277.498 61.1 279.898C55.6 282.198 50.6 284.198 47 285.698C45.1 286.398 43.7 286.898 42.6 287.298C41.6 287.698 41 287.898 41 287.798C41 287.798 41.5 287.498 42.6 287.098C43.6667 286.631 45.0667 286.031 46.8 285.298C50.5 283.798 55.5 281.698 60.9 279.398C66.4 277.098 71.3 274.998 75 273.398C76.7333 272.665 78.1667 272.065 79.3 271.598C80.3 271.198 80.9 270.898 80.9 270.998V270.998Z" fill="#F97316"/>
<path d="M100.7 244.299C100.7 244.299 100.2 244.599 99.2 245.099C98.1 245.599 96.6 246.199 94.8 246.999C91 248.699 85.9 250.799 80.1 253.199C74.4 255.499 69.1 257.499 65.3 258.999C63.4 259.699 61.9 260.199 60.8 260.599C59.7 260.999 59.1 261.199 59.1 261.099C59.1 261.099 59.7 260.799 60.7 260.399C61.9 259.932 63.4 259.332 65.2 258.599C69.1 257.099 74.2 254.999 79.9 252.699C85.6 250.399 90.8 248.299 94.6 246.699C96.4667 245.965 97.9667 245.365 99.1 244.899C100.1 244.499 100.7 244.199 100.7 244.299V244.299Z" fill="#F97316"/>
<path d="M180.3 275.1C180.3 275.1 180 275.4 179.2 275.7C178.5 276 177.5 276.5 176.2 277.1C173.6 278.3 170 279.8 166 281.5C162 283.1 158.3 284.5 155.7 285.4C154.3 285.9 153.2 286.3 152.5 286.5C151.7 286.8 151.3 286.9 151.3 286.9C151.3 286.8 151.7 286.7 152.4 286.3C153.267 285.966 154.3 285.566 155.5 285.1C158.3 284 161.8 282.6 165.8 281C169.8 279.4 173.3 277.9 176 276.8C177.267 276.266 178.333 275.833 179.2 275.5C179.9 275.2 180.3 275.1 180.3 275.1V275.1Z" fill="#F97316"/>
<path d="M177.1 330.098C177.1 330.098 176.7 330.298 176 330.598C175.4 330.998 174.3 331.498 173.1 332.098C170.6 333.198 167.1 334.798 163.2 336.398C159.3 337.998 155.8 339.398 153.2 340.398C151.9 340.798 150.8 341.198 150.1 341.498C149.4 341.698 149 341.798 149 341.798C148.9 341.798 149.3 341.598 150 341.298C150.867 340.965 151.9 340.532 153.1 339.998C155.7 338.898 159.2 337.498 163 335.898C166.8 334.298 170.3 332.798 172.9 331.698C174.1 331.232 175.133 330.832 176 330.498C176.7 330.198 177.1 329.998 177.1 330.098V330.098Z" fill="#F97316"/>
<path d="M176.6 349.299C176.6 349.299 176.3 349.499 175.6 349.899C174.9 350.199 173.9 350.699 172.6 351.299C170.1 352.499 166.6 353.999 162.8 355.599C158.9 357.299 155.3 358.699 152.7 359.599C151.4 360.099 150.4 360.499 149.6 360.699C148.9 360.999 148.5 361.099 148.5 361.099C148.5 360.999 148.9 360.799 149.6 360.499C150.4 360.166 151.4 359.765 152.6 359.299C155.2 358.199 158.7 356.799 162.6 355.199C166.4 353.599 169.8 352.099 172.5 350.999C173.7 350.466 174.7 350.032 175.5 349.699C176.2 349.399 176.6 349.299 176.6 349.299Z" fill="#F97316"/>
<path d="M176.2 368.598C176.2 368.598 175.8 368.798 175.1 369.098C174.4 369.498 173.4 369.998 172.2 370.598C169.7 371.698 166.2 373.298 162.3 374.898C158.4 376.498 154.8 377.898 152.3 378.898C151 379.398 149.9 379.698 149.2 379.998C148.5 380.198 148 380.398 148 380.298C148 380.298 148.4 380.098 149.1 379.798C149.9 379.465 150.9 379.032 152.1 378.498C154.8 377.398 158.3 375.998 162.1 374.398C165.9 372.798 169.4 371.298 172 370.198C173.2 369.732 174.2 369.332 175 368.998C175.7 368.698 176.2 368.498 176.2 368.598V368.598Z" fill="#F97316"/>
<path d="M180.8 254.799C180.9 254.799 180.5 254.999 179.8 255.399C179 255.699 178 256.199 176.7 256.799C174.1 257.899 170.5 259.499 166.5 261.099C162.5 262.699 158.8 264.099 156.2 265.099C154.8 265.599 153.8 265.899 153 266.199C152.3 266.399 151.8 266.599 151.8 266.499C151.8 266.499 152.2 266.299 152.9 265.999C153.767 265.666 154.8 265.233 156 264.699C158.8 263.699 162.4 262.199 166.3 260.599C170.3 258.999 173.8 257.599 176.6 256.399C177.8 255.933 178.833 255.533 179.7 255.199C180.4 254.899 180.8 254.699 180.8 254.799V254.799Z" fill="#F97316"/>
<path d="M181.4 234.398C181.4 234.498 181 234.698 180.3 234.998C179.6 235.398 178.5 235.798 177.2 236.398C174.6 237.598 171.1 239.098 167 240.798C163 242.398 159.4 243.798 156.7 244.698C155.4 245.198 154.3 245.598 153.5 245.898C152.8 246.098 152.3 246.198 152.3 246.198C152.3 246.198 152.7 245.998 153.5 245.698C154.3 245.365 155.333 244.932 156.6 244.398C159.3 243.298 162.9 241.898 166.8 240.298C170.8 238.698 174.4 237.198 177.1 236.098C178.3 235.565 179.333 235.132 180.2 234.798C180.9 234.498 181.4 234.398 181.4 234.398Z" fill="#F97316"/>
<path d="M181.9 214.1C181.9 214.1 181.5 214.3 180.9 214.7C180.2 215 179.2 215.4 178 216C175.5 217.1 172.1 218.6 168.3 220.2C164.4 221.7 160.9 223 158.4 223.9C157.1 224.4 156.1 224.7 155.4 225C154.6 225.2 154.2 225.3 154.2 225.3C154.2 225.3 154.6 225.1 155.3 224.8C156.1 224.466 157.1 224.066 158.3 223.6C160.9 222.5 164.3 221.2 168.1 219.7C171.8 218.1 175.2 216.7 177.8 215.7C179 215.233 180 214.833 180.8 214.5C181.5 214.2 181.9 214.1 181.9 214.1Z" fill="#F97316"/>
<path d="M184.2 195.099C184.2 195.199 182 196.199 179.2 197.199C176.4 198.299 174 198.999 174 198.899C173.9 198.699 176.2 197.799 179 196.699C181.8 195.699 184.1 194.899 184.2 195.099Z" fill="#F97316"/>
<path d="M120.6 216.6C120.6 216.6 120 216.9 119 217.4C118 217.9 116.5 218.5 114.6 219.4C110.9 221 105.7 223.2 100 225.5C94.2 227.8 89 229.8 85.2 231.3C83.3 232 81.7 232.5 80.7 232.9C79.6 233.3 79 233.5 79 233.4C79 233.4 79.5 233.2 80.6 232.7C81.7333 232.233 83.2 231.633 85 230.9C88.9 229.4 94.1 227.3 99.8 225C105.5 222.7 110.6 220.6 114.5 219C116.3 218.266 117.767 217.666 118.9 217.2C120 216.8 120.6 216.6 120.6 216.6V216.6Z" fill="#F97316"/>
<path d="M140.4 188.898C140.4 188.898 139.9 189.198 138.8 189.698C137.8 190.198 136.3 190.898 134.4 191.698C130.7 193.298 125.5 195.498 119.8 197.798C114.1 200.098 108.8 202.198 105 203.598C103.1 204.298 101.6 204.898 100.5 205.198C99.4 205.598 98.8 205.798 98.8 205.798C98.8 205.698 99.4 205.498 100.4 204.998C101.533 204.532 103.033 203.932 104.9 203.198C108.7 201.698 113.9 199.598 119.6 197.298C125.3 194.998 130.5 192.898 134.3 191.298C136.1 190.565 137.6 189.965 138.8 189.498C139.8 189.098 140.4 188.898 140.4 188.898V188.898Z" fill="#F97316"/>
<path d="M158.7 161.199C158.8 161.299 158.2 161.499 157.2 161.999C156.1 162.499 154.6 163.199 152.8 163.999C149 165.599 143.9 167.799 138.1 170.099C132.4 172.399 127.2 174.499 123.3 175.899C121.4 176.599 119.9 177.199 118.8 177.499C117.8 177.899 117.2 178.099 117.1 178.099C117.1 177.999 117.7 177.799 118.8 177.399C119.933 176.933 121.4 176.333 123.2 175.599C127.1 173.999 132.2 171.899 137.9 169.599C143.6 167.299 148.8 165.199 152.6 163.599C154.467 162.866 155.967 162.266 157.1 161.799C158.1 161.399 158.7 161.199 158.7 161.199Z" fill="#F97316"/>
<path d="M177.8 134.6C177.8 134.6 177.3 134.9 176.2 135.4C175.2 135.9 173.7 136.6 171.8 137.4C168.1 139 162.9 141.2 157.2 143.5C151.5 145.8 146.2 147.9 142.4 149.3C140.5 150 139 150.6 137.9 150.9C136.8 151.3 136.2 151.5 136.2 151.4C136.2 151.4 136.8 151.2 137.8 150.7C138.933 150.233 140.433 149.633 142.3 148.9C146.1 147.4 151.3 145.3 157 143C162.7 140.7 167.9 138.6 171.7 137C173.5 136.266 175 135.666 176.2 135.2C177.2 134.8 177.8 134.6 177.8 134.6V134.6Z" fill="#F97316"/>
<path d="M228.4 175.299C228.467 175.299 228.3 175.499 227.9 175.899C227.5 176.299 226.9 176.999 226 177.699C224.4 179.099 221.8 180.999 218.3 182.699C214.7 184.299 210.1 185.599 204.9 185.699C202.3 185.799 199.6 185.499 196.8 184.799C194.1 184.199 191.4 183.099 188.7 181.799C183.3 179.199 178.5 176.099 173.8 173.899C169.2 171.699 164.6 170.599 160.7 170.499C156.8 170.399 153.7 171.199 151.8 172.199C150.8 172.665 150.067 173.065 149.6 173.399C149.133 173.732 148.9 173.899 148.9 173.899C148.9 173.899 149.133 173.699 149.6 173.299C150 172.965 150.7 172.532 151.7 171.999C153.7 170.999 156.8 169.999 160.7 170.099C164.7 170.199 169.3 171.299 174 173.499C178.8 175.599 183.5 178.699 188.9 181.299C191.6 182.599 194.2 183.699 197 184.299C199.7 184.999 202.4 185.299 204.9 185.299C210 185.199 214.6 183.899 218.1 182.399C221.7 180.799 224.3 178.899 225.9 177.499C226.8 176.799 227.4 176.299 227.8 175.899C228.2 175.499 228.4 175.299 228.4 175.299V175.299Z" fill="white"/>
<path d="M214.5 125.799C214.5 125.899 214.1 126.099 213.2 126.599C212.4 126.999 211.2 127.599 209.6 128.299C208.1 128.899 206.2 129.599 204 130.299C201.9 130.899 199.5 131.499 196.9 131.899C194.4 132.299 191.9 132.499 189.7 132.599C187.4 132.699 185.4 132.599 183.7 132.499C182 132.399 180.7 132.199 179.8 131.999C178.8 131.899 178.3 131.799 178.3 131.699C178.3 131.699 178.8 131.699 179.8 131.799C180.7 131.899 182.1 131.999 183.8 132.099C185.4 132.199 187.4 132.199 189.7 132.099C191.9 131.999 194.3 131.799 196.8 131.399C199.4 130.999 201.7 130.399 203.9 129.799C206 129.199 207.9 128.499 209.5 127.899C211 127.299 212.3 126.799 213.2 126.399C214 125.999 214.5 125.799 214.5 125.799V125.799Z" fill="white"/>
<path d="M143.5 236.899C143.5 236.899 143.2 236.499 142.6 235.899C142 235.165 141.233 234.232 140.3 233.099C138.2 230.699 135.3 227.499 131.9 224.299C130.2 222.699 128.4 221.299 126.6 220.299C124.9 219.199 123.1 218.599 121.6 218.299C118.6 217.699 116.7 218.399 116.7 218.299C116.7 218.299 116.8 218.265 117 218.199C117.2 218.132 117.533 218.032 118 217.899C118.9 217.799 120.1 217.699 121.7 217.999C123.3 218.199 125.1 218.799 126.9 219.899C128.7 220.899 130.5 222.299 132.2 223.899C135.7 227.199 138.6 230.399 140.5 232.799C141.5 233.999 142.3 234.999 142.8 235.799C143.3 236.499 143.6 236.899 143.5 236.899V236.899Z" fill="white"/>
<path d="M223.3 267.1C223.3 267.1 223.167 267.2 222.9 267.4C222.6 267.6 222.2 267.9 221.7 268.2C220.7 268.8 219.1 269.6 217 270.4C212.9 272 206.7 273.1 200.1 271.7C193.5 270.4 188.2 266.9 185.1 263.9C183.5 262.3 182.3 261 181.6 260C181.2 259.5 181 259.1 180.8 258.8C180.667 258.533 180.6 258.4 180.6 258.4C180.6 258.3 181 258.9 181.8 259.8C182.5 260.8 183.7 262.1 185.3 263.6C188.5 266.5 193.7 269.9 200.2 271.2C206.7 272.6 212.8 271.5 216.9 270C218.9 269.3 220.5 268.6 221.6 268C222.7 267.4 223.3 267.1 223.3 267.1V267.1Z" fill="white"/>
<path d="M252.4 330.4C252.333 330.333 252.233 330.2 252.1 330C251.967 329.666 251.7 329.2 251.3 328.6C250.7 327.3 249.5 325.6 247.9 323.5C247.5 322.966 247.067 322.433 246.6 321.9C246.333 321.633 246.067 321.333 245.8 321C245.533 320.733 245.267 320.466 245 320.2C244.4 319.6 243.8 319 243.2 318.4C242.533 317.866 241.833 317.3 241.1 316.7C238.1 314.3 234.5 312 230.1 310.2C225.7 308.3 220.6 307 215.1 306.7C209.5 306.3 203.5 307.2 197.6 309.5C191.8 311.8 186.1 315.2 180.2 318.6C177.2 320.3 174.1 321.9 170.8 323.2C167.5 324.6 164 325.6 160.3 326C156.7 326.4 153 326.1 149.5 325.3C146 324.6 142.7 323.4 139.6 321.9C133.3 319.1 127.8 315.3 122.7 311.7C117.5 308 112.7 304.5 107.9 301.7C103.1 298.9 98.3 296.7 93.6 295.6C89 294.5 84.7 294.3 80.9 294.8C77.2 295.2 74.1 296.2 71.7 297.4C69.3 298.6 67.7 300 66.7 300.9C66.1667 301.366 65.7667 301.733 65.5 302C65.3667 302.2 65.2333 302.333 65.1 302.4C65.2333 302.266 65.3667 302.133 65.5 302C65.7667 301.733 66.1333 301.333 66.6 300.8C67.7 299.9 69.2 298.5 71.6 297.3C74 296 77.1 294.9 80.9 294.5C84.7 294 89.1 294.2 93.7 295.2C98.4 296.3 103.2 298.5 108.1 301.3C113 304.1 117.8 307.6 123 311.3C128.1 314.9 133.6 318.7 139.8 321.5C142.9 322.9 146.2 324.1 149.6 324.8C153.1 325.6 156.7 325.9 160.3 325.5C163.8 325.1 167.3 324.1 170.6 322.8C173.8 321.4 176.9 319.8 179.9 318.1C185.9 314.8 191.5 311.3 197.5 309C198.9 308.5 200.4 307.9 201.9 307.6C202.7 307.4 203.4 307.2 204.1 307C204.9 306.866 205.667 306.733 206.4 306.6C209.3 306.1 212.3 306.1 215.1 306.2C220.7 306.5 225.8 307.9 230.2 309.8C234.7 311.7 238.3 314.1 241.3 316.5C242.033 317.1 242.733 317.666 243.4 318.2C244 318.866 244.6 319.466 245.2 320C245.467 320.333 245.733 320.633 246 320.9C246.267 321.166 246.5 321.433 246.7 321.7C247.167 322.3 247.633 322.866 248.1 323.4C249.7 325.5 250.8 327.3 251.4 328.5C251.733 329.1 252 329.566 252.2 329.9C252.333 330.1 252.4 330.266 252.4 330.4V330.4Z" fill="white"/>
<path d="M222.2 372.199C222.2 372.199 222.033 372.232 221.7 372.299C221.3 372.365 220.8 372.466 220.2 372.599C219.533 372.732 218.767 372.832 217.9 372.899C216.9 372.999 215.9 373.199 214.7 373.199C214.1 373.266 213.5 373.299 212.9 373.299C212.2 373.299 211.6 373.299 210.9 373.299C209.5 373.299 208.1 373.099 206.5 372.999C203.4 372.699 200.1 372.099 196.6 371.099C193.2 370.099 190.1 368.799 187.3 367.399C185.9 366.699 184.6 365.999 183.5 365.299C182.9 364.899 182.3 364.599 181.8 364.199C181.267 363.866 180.767 363.532 180.3 363.199C179.3 362.499 178.5 361.799 177.8 361.299C177.067 360.699 176.467 360.166 176 359.699C175.533 359.299 175.167 358.966 174.9 358.699C174.633 358.432 174.5 358.299 174.5 358.299C174.5 358.299 174.633 358.399 174.9 358.599C175.233 358.866 175.633 359.199 176.1 359.599C176.567 359.999 177.167 360.466 177.9 360.999C178.7 361.599 179.5 362.299 180.5 362.899C180.967 363.232 181.467 363.566 182 363.899C182.5 364.199 183.1 364.599 183.7 364.899C184.8 365.599 186.1 366.299 187.5 366.999C190.3 368.299 193.4 369.599 196.8 370.599C200.2 371.599 203.5 372.199 206.6 372.599C208.1 372.699 209.5 372.799 210.9 372.799C211.6 372.899 212.2 372.899 212.9 372.899C213.5 372.899 214.1 372.865 214.7 372.799C215.9 372.899 216.9 372.699 217.8 372.699C218.733 372.632 219.533 372.532 220.2 372.399C220.8 372.332 221.3 372.266 221.7 372.199C222.033 372.199 222.2 372.199 222.2 372.199V372.199Z" fill="white"/>
<path fill-rule="evenodd" clip-rule="evenodd" d="M629.3 293.399L662.6 290.199L666.1 325.499L632.8 328.699L638.5 387.399L594.7 391.599L589 332.999L475.8 344.099L472.1 317.299L567.5 128.199L612.7 123.799L629.3 293.399ZM514.8 304.599L585.5 297.699L575.1 190.699L573.9 190.499L571.1 198.599L514.8 304.599Z" fill="#F97316"/>
<g opacity="0.4">
<path opacity="0.4" fill-rule="evenodd" clip-rule="evenodd" d="M629.3 293.399L662.6 290.199L666.1 325.499L632.8 328.699L638.5 387.399L594.7 391.599L589 332.999L475.8 344.099L472.1 317.299L567.5 128.199L612.7 123.799L629.3 293.399ZM514.8 304.599L585.5 297.699L575.1 190.699L573.9 190.499L571.1 198.599L514.8 304.599Z" fill="black"/>
</g>
<path fill-rule="evenodd" clip-rule="evenodd" d="M657.2 290.7L690.5 287.4L693.9 322.7L660.6 326L666.4 384.6L622.6 388.9L616.8 330.3L503.7 341.3L500 314.6L595.3 125.5L640.6 121.1L657.2 290.7ZM542.6 301.9L613.4 295L602.9 188L601.8 187.7L598.9 195.9L542.6 301.9Z" fill="#F97316"/>
<path d="M501.3 319.6C501.3 319.6 500.9 319.9 500.3 320.4C499.6 320.8 498.7 321.5 497.5 322.2C495.1 323.8 491.8 325.9 488 328.1C484.3 330.4 480.9 332.3 478.4 333.7C477.2 334.4 476.1 334.9 475.4 335.3C474.7 335.7 474.3 335.8 474.3 335.8C474.3 335.8 474.7 335.5 475.3 335.1C476.1 334.633 477.067 334.066 478.2 333.4C480.8 331.9 484.1 329.9 487.8 327.7C491.4 325.5 494.8 323.5 497.3 321.9C498.433 321.233 499.4 320.666 500.2 320.2C500.9 319.8 501.2 319.6 501.3 319.6V319.6Z" fill="#F97316"/>
<path d="M513.2 287.699C513.2 287.699 512.7 288.099 511.8 288.699C510.9 289.299 509.6 290.199 507.9 291.199C504.6 293.299 500 296.199 494.9 299.199C489.7 302.299 485.1 304.999 481.7 306.999C480 307.899 478.6 308.699 477.6 309.199C476.6 309.699 476.1 309.999 476.1 309.999C476 309.899 476.6 309.599 477.5 308.999C478.5 308.399 479.833 307.632 481.5 306.699C484.9 304.599 489.5 301.799 494.6 298.799C499.7 295.699 504.3 292.999 507.7 290.899C509.3 289.899 510.633 289.099 511.7 288.499C512.6 287.899 513.1 287.599 513.2 287.699V287.699Z" fill="#F97316"/>
<path d="M529.1 258.398C529.1 258.498 528.6 258.798 527.6 259.498C526.7 260.098 525.3 260.898 523.6 261.998C520.1 264.098 515.3 266.998 509.9 270.098C504.6 273.298 499.7 275.998 496.1 277.998C494.3 278.898 492.9 279.698 491.9 280.198C490.8 280.698 490.3 280.998 490.3 280.998C490.2 280.898 490.8 280.598 491.8 279.998C492.867 279.398 494.233 278.598 495.9 277.598C499.5 275.598 504.3 272.798 509.7 269.698C515 266.598 519.8 263.798 523.4 261.698C525.067 260.698 526.433 259.898 527.5 259.298C528.5 258.698 529.1 258.398 529.1 258.398V258.398Z" fill="#F97316"/>
<path d="M612.2 277.799C612.2 277.799 611.9 278.099 611.2 278.499C610.6 278.999 609.6 279.599 608.4 280.299C606 281.899 602.7 283.899 598.9 286.099C595.2 288.199 591.7 290.099 589.2 291.499C588 292.099 587 292.699 586.3 292.999C585.5 293.399 585.1 293.499 585.1 293.499C585.1 293.499 585.5 293.199 586.2 292.799C586.933 292.332 587.9 291.766 589.1 291.099C591.6 289.699 595 287.799 598.7 285.599C602.3 283.499 605.7 281.499 608.2 279.999C609.333 279.332 610.3 278.766 611.1 278.299C611.8 277.899 612.2 277.699 612.2 277.799Z" fill="#F97316"/>
<path d="M616.7 332.6C616.8 332.7 616.4 332.9 615.8 333.4C615.2 333.8 614.2 334.4 613.1 335.2C610.7 336.7 607.5 338.7 603.9 340.9C600.3 343 596.9 344.9 594.5 346.2C593.3 346.9 592.3 347.4 591.6 347.7C590.9 348.1 590.6 348.3 590.5 348.2C590.5 348.2 590.9 348 591.5 347.6C592.3 347.133 593.233 346.566 594.3 345.9C596.8 344.4 600.1 342.5 603.6 340.4C607.2 338.3 610.4 336.3 612.9 334.9C613.967 334.233 614.9 333.666 615.7 333.2C616.3 332.8 616.7 332.6 616.7 332.6V332.6Z" fill="#F97316"/>
<path d="M619 351.799C619 351.799 618.7 351.999 618 352.499C617.4 352.899 616.5 353.499 615.3 354.299C613 355.799 609.8 357.799 606.1 359.999C602.5 362.099 599.2 363.999 596.8 365.299C595.6 365.999 594.6 366.499 593.9 366.899C593.2 367.199 592.8 367.399 592.8 367.399C592.8 367.299 593.1 367.099 593.8 366.699C594.533 366.232 595.467 365.666 596.6 364.999C599.1 363.599 602.3 361.599 605.9 359.499C609.4 357.399 612.7 355.499 615.1 353.999C616.233 353.332 617.167 352.766 617.9 352.299C618.6 351.899 619 351.699 619 351.799V351.799Z" fill="#F97316"/>
<path d="M621.2 370.898C621.3 370.898 620.9 371.198 620.3 371.598C619.7 372.098 618.7 372.698 617.6 373.398C615.2 374.898 612 376.998 608.4 379.098C604.8 381.298 601.4 383.098 599 384.498C597.8 385.098 596.8 385.598 596.1 385.998C595.4 386.298 595.1 386.498 595 386.498C595 386.398 595.4 386.198 596 385.798C596.8 385.332 597.733 384.765 598.8 384.098C601.3 382.698 604.6 380.798 608.1 378.698C611.7 376.498 614.9 374.598 617.4 373.098C618.467 372.432 619.4 371.865 620.2 371.398C620.8 371.098 621.2 370.898 621.2 370.898V370.898Z" fill="#F97316"/>
<path d="M609.9 257.6C609.9 257.6 609.5 257.9 608.9 258.3C608.2 258.7 607.3 259.4 606.1 260.1C603.7 261.6 600.3 263.7 596.6 265.9C592.8 268 589.4 269.9 586.9 271.2C585.6 271.9 584.6 272.4 583.9 272.8C583.2 273.1 582.8 273.3 582.8 273.3C582.8 273.3 583.1 273 583.8 272.6C584.6 272.133 585.567 271.566 586.7 270.9C589.3 269.5 592.6 267.5 596.3 265.4C600 263.3 603.3 261.3 605.9 259.8C607.033 259.133 608 258.566 608.8 258.1C609.5 257.7 609.9 257.5 609.9 257.6V257.6Z" fill="#F97316"/>
<path d="M607.5 237.399C607.5 237.399 607.2 237.599 606.5 238.099C605.9 238.499 604.9 239.199 603.7 239.899C601.3 241.399 598 243.499 594.2 245.599C590.5 247.799 587.1 249.699 584.6 250.999C583.3 251.699 582.3 252.199 581.6 252.599C580.9 252.899 580.5 253.099 580.4 253.099C580.4 252.999 580.8 252.799 581.5 252.399C582.233 251.932 583.2 251.365 584.4 250.699C586.9 249.199 590.3 247.299 594 245.199C597.7 242.999 601 241.099 603.5 239.599C604.7 238.932 605.667 238.365 606.4 237.899C607.1 237.499 607.5 237.299 607.5 237.399V237.399Z" fill="#F97316"/>
<path d="M605.2 217.1C605.2 217.2 604.9 217.4 604.2 217.8C603.6 218.3 602.7 218.9 601.6 219.6C599.3 221 596.1 223 592.5 225.1C589 227.1 585.7 228.9 583.3 230.2C582.1 230.8 581.1 231.3 580.5 231.6C579.8 232 579.4 232.1 579.4 232.1C579.4 232.1 579.7 231.9 580.4 231.5C581.133 231.033 582.033 230.5 583.1 229.9C585.6 228.5 588.7 226.6 592.3 224.6C595.8 222.6 598.9 220.7 601.4 219.3C602.467 218.633 603.367 218.1 604.1 217.7C604.8 217.3 605.2 217.1 605.2 217.1V217.1Z" fill="#F97316"/>
<path d="M604.8 197.999C604.8 198.099 602.8 199.399 600.1 200.799C597.5 202.199 595.3 203.299 595.2 203.199C595.1 202.999 597.2 201.799 599.9 200.399C602.5 198.899 604.7 197.899 604.8 197.999Z" fill="#F97316"/>
<path d="M544.8 228.199C544.8 228.299 544.3 228.599 543.4 229.299C542.4 229.899 541 230.699 539.3 231.799C535.8 233.899 531 236.799 525.7 239.899C520.3 243.099 515.4 245.799 511.8 247.799C510.1 248.699 508.6 249.499 507.6 249.999C506.6 250.499 506 250.799 506 250.799C506 250.699 506.5 250.399 507.5 249.799C508.567 249.199 509.967 248.399 511.7 247.399C515.3 245.399 520.1 242.599 525.4 239.499C530.7 236.399 535.5 233.599 539.1 231.499C540.833 230.499 542.233 229.699 543.3 229.099C544.3 228.499 544.8 228.199 544.8 228.199V228.199Z" fill="#F97316"/>
<path d="M560.6 197.998C560.6 198.098 560.1 198.398 559.1 199.098C558.2 199.698 556.8 200.498 555 201.598C551.6 203.698 546.8 206.598 541.4 209.698C536.1 212.898 531.2 215.598 527.6 217.598C525.8 218.498 524.4 219.298 523.3 219.798C522.3 220.298 521.8 220.598 521.8 220.598C521.7 220.498 522.3 220.198 523.3 219.598C524.3 218.998 525.667 218.198 527.4 217.198C531 215.198 535.8 212.398 541.2 209.298C546.5 206.198 551.3 203.398 554.9 201.298C556.567 200.298 557.933 199.498 559 198.898C560 198.298 560.6 197.998 560.6 197.998V197.998Z" fill="#F97316"/>
<path d="M574.8 168.099C574.8 168.099 574.3 168.399 573.4 169.099C572.4 169.699 571 170.599 569.3 171.599C565.8 173.799 561 176.599 555.7 179.799C550.3 182.899 545.4 185.599 541.9 187.599C540.1 188.499 538.6 189.299 537.6 189.799C536.6 190.299 536 190.599 536 190.599C536 190.599 536.5 190.199 537.5 189.599C538.567 188.999 539.967 188.199 541.7 187.199C545.3 185.199 550.1 182.399 555.4 179.299C560.7 176.199 565.5 173.399 569.1 171.299C570.833 170.299 572.233 169.499 573.3 168.899C574.3 168.299 574.8 167.999 574.8 168.099V168.099Z" fill="#F97316"/>
<path d="M590 138.998C590 138.998 589.5 139.398 588.5 139.998C587.6 140.598 586.2 141.498 584.4 142.598C581 144.698 576.2 147.598 570.8 150.698C565.4 153.798 560.6 156.598 557 158.498C555.2 159.498 553.8 160.298 552.7 160.798C551.7 161.298 551.2 161.598 551.1 161.498C551.1 161.498 551.7 161.198 552.6 160.598C553.667 159.998 555.067 159.198 556.8 158.198C560.4 156.098 565.2 153.298 570.6 150.298C575.9 147.198 580.7 144.398 584.3 142.298C585.967 141.298 587.333 140.498 588.4 139.898C589.4 139.298 589.9 138.998 590 138.998V138.998Z" fill="#F97316"/>
<path d="M645.8 172.199C645.8 172.199 645.633 172.433 645.3 172.899C645 173.399 644.5 174.099 643.8 174.899C642.4 176.499 640.1 178.799 636.8 180.899C633.5 183.099 629.1 184.999 624 185.799C621.4 186.299 618.7 186.399 615.9 186.099C613 185.799 610.2 185.099 607.3 184.199C601.6 182.399 596.5 179.999 591.5 178.499C586.6 176.999 582 176.499 578.1 176.999C574.2 177.399 571.3 178.699 569.5 179.899C568.567 180.499 567.9 180.999 567.5 181.399C567.1 181.799 566.9 181.999 566.9 181.999C566.833 181.933 567.033 181.699 567.5 181.299C567.833 180.899 568.467 180.366 569.4 179.699C571.2 178.399 574.1 177.099 578.1 176.599C582 176.099 586.7 176.499 591.7 177.999C596.7 179.499 601.8 181.899 607.5 183.699C610.3 184.599 613.1 185.299 615.9 185.599C618.7 185.899 621.4 185.799 623.9 185.399C629 184.599 633.3 182.699 636.6 180.599C639.9 178.599 642.2 176.399 643.6 174.699C644.4 173.999 644.9 173.299 645.2 172.799C645.6 172.399 645.8 172.199 645.8 172.199V172.199Z" fill="white"/>
<path d="M625.1 125.199C625.1 125.199 624.7 125.499 623.9 126.099C623.2 126.599 622 127.399 620.6 128.299C619.1 129.199 617.3 130.099 615.3 130.999C613.3 131.999 611 132.899 608.5 133.699C606 134.399 603.6 134.999 601.4 135.399C599.2 135.799 597.2 135.999 595.5 136.099C593.8 136.199 592.5 136.199 591.5 136.199C590.6 136.199 590.1 136.099 590.1 136.099C590.1 136.099 590.6 135.999 591.5 135.999C592.5 135.999 593.8 135.899 595.5 135.699C597.2 135.599 599.2 135.299 601.3 134.899C603.5 134.499 605.9 133.899 608.4 133.199C610.8 132.399 613.1 131.499 615.1 130.599C617.1 129.699 618.9 128.799 620.4 127.999C621.8 127.099 623 126.399 623.8 125.899C624.6 125.399 625.1 125.099 625.1 125.199V125.199Z" fill="white"/>
<path d="M570.4 245.098C570.4 245.098 570 244.798 569.4 244.198C568.667 243.598 567.733 242.798 566.6 241.798C564.3 239.698 561 236.998 557.1 234.298C555.2 232.898 553.2 231.798 551.3 230.998C549.5 230.298 547.7 229.898 546.1 229.798C543 229.698 541.2 230.598 541.2 230.498C541.2 230.498 541.3 230.432 541.5 230.298C541.7 230.165 542.033 230.032 542.5 229.898C543.3 229.698 544.6 229.398 546.1 229.398C547.7 229.498 549.6 229.798 551.5 230.598C553.5 231.298 555.4 232.498 557.4 233.898C561.3 236.598 564.6 239.398 566.9 241.498C568 242.598 568.9 243.498 569.5 244.098C570.1 244.698 570.4 245.098 570.4 245.098V245.098Z" fill="white"/>
<path d="M653.6 263.798C653.6 263.798 653.5 263.932 653.3 264.198C653 264.398 652.7 264.698 652.2 265.098C651.3 265.898 649.8 266.898 647.9 267.898C644.1 270.098 638.1 272.098 631.3 271.698C624.6 271.198 618.8 268.498 615.3 265.998C613.5 264.698 612.2 263.498 611.4 262.598C610.9 262.198 610.6 261.798 610.4 261.498C610.2 261.298 610.1 261.198 610.1 261.198C610.2 261.098 610.6 261.598 611.5 262.398C612.4 263.298 613.7 264.398 615.5 265.698C619.1 268.098 624.7 270.698 631.3 271.098C638 271.498 643.9 269.598 647.7 267.598C649.6 266.598 651.1 265.598 652.1 264.898C653.1 264.198 653.6 263.798 653.6 263.798V263.798Z" fill="white"/>
<path d="M691.4 322.398C691.333 322.332 691.2 322.198 691 321.998C690.8 321.665 690.467 321.232 690 320.698C689.2 319.598 687.8 317.998 685.9 316.198C685.433 315.732 684.933 315.265 684.4 314.798C684.133 314.532 683.833 314.265 683.5 313.998C683.233 313.798 682.933 313.565 682.6 313.298C681.933 312.832 681.233 312.332 680.5 311.798C679.767 311.332 679 310.865 678.2 310.398C675 308.498 671 306.698 666.4 305.498C661.8 304.298 656.6 303.598 651 304.098C645.5 304.598 639.7 306.298 634.2 309.298C628.7 312.498 623.6 316.698 618.2 320.798C615.4 322.898 612.6 324.998 609.5 326.798C606.4 328.598 603.1 330.098 599.6 330.998C596 331.898 592.3 332.098 588.8 331.798C585.2 331.598 581.8 330.798 578.5 329.898C571.9 327.898 565.9 324.998 560.3 322.098C554.7 319.198 549.4 316.398 544.2 314.298C539 312.198 534 310.698 529.3 310.298C524.5 309.798 520.2 310.198 516.6 311.198C512.9 312.098 510 313.598 507.8 315.198C505.6 316.598 504.3 318.198 503.3 319.298C502.9 319.832 502.6 320.265 502.4 320.598C502.2 320.732 502.067 320.865 502 320.998C502.067 320.865 502.167 320.698 502.3 320.498C502.5 320.232 502.8 319.798 503.2 319.198C504.1 318.198 505.5 316.498 507.7 314.998C509.9 313.398 512.8 311.898 516.5 310.898C520.2 309.898 524.5 309.498 529.3 309.898C534.1 310.298 539.2 311.798 544.4 313.898C549.6 315.998 554.9 318.798 560.5 321.598C566.1 324.498 572.1 327.498 578.6 329.398C581.9 330.298 585.3 331.098 588.8 331.298C592.3 331.498 595.9 331.398 599.4 330.498C602.9 329.598 606.2 328.098 609.3 326.298C612.3 324.598 615.1 322.498 617.9 320.398C623.3 316.298 628.4 312.098 633.9 308.898C635.3 308.198 636.7 307.398 638.2 306.898C638.9 306.598 639.6 306.298 640.3 305.998C641.033 305.798 641.733 305.565 642.4 305.298C645.3 304.398 648.2 303.998 651 303.698C656.6 303.198 661.9 303.898 666.5 305.098C671.1 306.398 675.1 308.198 678.4 310.098C679.2 310.632 679.967 311.132 680.7 311.598C681.367 312.132 682.033 312.632 682.7 313.098C683.033 313.365 683.367 313.598 683.7 313.798C683.967 314.065 684.233 314.332 684.5 314.598C685.033 315.132 685.567 315.598 686.1 315.998C688 317.898 689.3 319.498 690.1 320.698C690.5 321.232 690.833 321.632 691.1 321.898C691.233 322.098 691.333 322.265 691.4 322.398V322.398Z" fill="white"/>
<path d="M667.3 367.998C667.3 367.998 667.133 368.065 666.8 368.198C666.467 368.332 666 368.498 665.4 368.698C664.8 368.898 664.033 369.132 663.1 369.398C662.2 369.598 661.2 369.898 660.1 370.098C659.5 370.165 658.9 370.265 658.3 370.398C657.6 370.498 657 370.598 656.3 370.698C654.9 370.898 653.5 370.898 651.9 370.998C648.8 371.098 645.4 370.998 641.9 370.498C638.3 369.998 635 369.198 632.1 368.198C630.6 367.698 629.2 367.198 628 366.598C627.4 366.298 626.7 366.098 626.2 365.798C625.6 365.532 625.033 365.265 624.5 364.998C623.5 364.498 622.6 363.898 621.8 363.398C621 362.932 620.333 362.498 619.8 362.098C619.267 361.765 618.867 361.498 618.6 361.298C618.267 361.098 618.133 360.965 618.2 360.898C618.2 360.898 618.333 360.998 618.6 361.198C618.933 361.398 619.367 361.665 619.9 361.998C620.433 362.332 621.1 362.732 621.9 363.198C622.7 363.598 623.6 364.198 624.7 364.598C625.233 364.865 625.767 365.132 626.3 365.398C626.9 365.698 627.5 365.898 628.2 366.198C629.4 366.798 630.8 367.198 632.2 367.698C635.2 368.698 638.4 369.498 641.9 369.998C645.5 370.498 648.8 370.598 651.9 370.598C653.4 370.498 654.9 370.398 656.2 370.198C656.9 370.198 657.6 370.098 658.2 369.998C658.8 369.932 659.4 369.832 660 369.698C661.1 369.498 662.2 369.298 663.1 369.098C663.967 368.898 664.733 368.698 665.4 368.498C665.933 368.365 666.4 368.232 666.8 368.098C667.133 368.032 667.3 367.998 667.3 367.998V367.998Z" fill="white"/>
<path d="M501.4 214.298L491.6 264.298L455.5 278.998C454.3 291.498 452.8 302.598 451 307.798C448 316.598 424.1 336.998 401.3 345.698C388.567 350.498 376.833 352.432 366.1 351.498C349.7 348.765 337.3 335.498 328.9 311.698L340.1 261.998L316.3 237.498C338.367 216.965 353.4 204.665 361.4 200.598C369.7 196.398 377.4 197.098 383.3 199.098L408.7 206.498L452.1 220.398L459.1 221.498L501.4 214.298Z" fill="#455A64"/>
<path d="M406.3 309.999C406.3 309.999 406.2 310.099 406 310.299C405.7 310.499 405.4 310.799 404.9 311.099C403.9 311.699 402.5 312.599 400.5 313.399C396.7 314.999 390.8 316.299 384.5 314.899C378.2 313.499 373.4 309.899 370.6 306.899C369.2 305.299 368.2 303.899 367.6 302.899C367.3 302.399 367.1 301.999 367 301.799C366.867 301.532 366.8 301.365 366.8 301.299C366.8 301.299 367.1 301.899 367.8 302.799C368.4 303.799 369.4 305.099 370.9 306.599C373.7 309.599 378.5 313.099 384.6 314.399C390.8 315.699 396.6 314.599 400.4 313.099C402.3 312.299 403.8 311.499 404.8 310.899C405.8 310.299 406.3 309.899 406.3 309.999V309.999Z" fill="#263238"/>
<path d="M392.6 208.498C392.6 208.498 392.633 208.598 392.7 208.798C392.767 208.931 392.833 209.165 392.9 209.498C393.033 210.098 393.233 210.998 393.5 212.198C394 214.598 394.7 218.098 394.9 222.398C395 224.598 394.9 226.998 394.5 229.598C394 232.098 393.1 234.798 391.6 237.298C390.1 239.798 388.1 242.098 385.7 244.098C383.4 246.198 380.8 248.198 378.1 250.198C372.5 254.398 367 258.298 362.1 261.698C357.2 265.198 352.8 268.298 349.4 270.998H349.3H349.2C346.1 268.498 343.7 266.298 342.2 264.698C341.467 263.898 340.933 263.265 340.6 262.798C340.4 262.598 340.3 262.398 340.2 262.198C340.133 262.131 340.1 262.065 340.1 261.998C340.2 261.998 340.3 262.298 340.7 262.698C341.033 263.165 341.6 263.798 342.4 264.598C343.9 266.098 346.3 268.198 349.4 270.698H349.2C352.6 267.998 356.9 264.898 361.8 261.398C366.7 257.898 372.2 253.998 377.8 249.798C380.4 247.798 383 245.798 385.4 243.798C387.7 241.698 389.7 239.498 391.2 236.998C392.7 234.598 393.6 231.998 394.1 229.498C394.5 226.998 394.6 224.598 394.5 222.398C394.4 218.098 393.7 214.598 393.3 212.198C393.033 211.065 392.867 210.165 392.8 209.498C392.733 209.165 392.667 208.931 392.6 208.798C392.6 208.598 392.6 208.498 392.6 208.498V208.498Z" fill="#263238"/>
<path d="M595.6 232.699C592.4 242.099 584.8 249.899 575.5 253.399C566.2 256.899 555.4 255.899 546.8 250.899C545.1 249.799 542.8 248.599 541.2 249.899C539.7 250.999 540 253.399 541.1 254.899C542.2 256.399 543.8 257.399 544.9 258.899C547.6 262.599 545.9 268.299 542.2 270.999C538.4 273.699 533.3 273.799 528.9 272.399C524.5 271.099 520.7 268.399 516.8 265.999C511.4 262.499 504.1 259.399 499.2 263.299C495.4 266.299 495 271.999 491.6 275.399C488.7 278.299 484.1 278.899 480.2 277.699C476.4 276.499 473.1 273.799 470.4 270.799C456.8 255.199 456.6 231.799 445.8 214.199C440.1 204.999 431.7 197.699 423.5 190.599C420.3 187.799 417.2 185.099 414.2 182.199C412.5 190.599 410.7 198.799 408.7 206.499C401.3 204.899 389.5 199.699 383.8 194.799C378.1 189.899 375.6 178.199 379.2 171.599C381.8 166.799 387.4 163.899 389.2 158.699C390.6 154.699 389.4 150.299 390.4 146.299C392 138.999 399.6 134.699 403.2 128.299C403.6 127.633 403.933 126.999 404.2 126.399L405.9 117.199C406.4 112.799 411 109.899 415.3 108.899C419.6 107.799 424.3 107.799 428.3 105.799C431.9 104.099 434.5 100.899 437.6 98.4994C445.3 92.5994 456.2 91.0994 465.2 94.8994C472.6 97.9994 478.3 104.599 480.7 112.199C488.4 119.399 493 129.899 492.3 140.399C492 145.799 490.5 150.999 490.2 156.399C489.9 161.699 491.2 167.599 495.4 170.999C500.7 175.199 508.4 173.899 514.8 171.699C521.1 169.399 527.7 166.299 534.4 167.399C541.7 168.699 547.1 174.899 553.8 178.199C564 183.199 577.3 180.799 585 172.399C586.3 180.499 581.9 189.199 574.6 192.999C579.4 193.533 584.167 194.033 588.9 194.499C594.5 206.699 591.1 222.299 580.9 230.999C585.5 232.899 590.6 233.499 595.6 232.699V232.699Z" fill="#263238"/>
<path d="M572 152.5C572.333 152.767 572.767 153.167 573.3 153.7C574.1 154.4 575.3 155.6 576.3 157.5C576.7 158.5 577.2 159.6 577.4 160.9C577.5 162.2 577.5 163.7 576.9 165.1C576.3 166.5 575.3 167.9 573.8 168.8C573.1 169.3 572.2 169.6 571.3 169.7C570.4 169.8 569.4 169.7 568.5 169.3C564.8 167.8 562.9 163.5 558.9 161.6C555 159.5 550 159.4 545.2 160.5C540.3 161.6 535.7 164.2 531 166.9C526.2 169.5 521.2 172.4 515.4 173.4C512.5 173.9 509.6 173.9 506.8 173.3C505.4 172.967 504.067 172.467 502.8 171.8C501.6 171.2 500.5 170.3 499.5 169.3C497.5 167.4 496.1 165 495.2 162.5C494.2 160.1 493.7 157.5 493.4 155C492.9 150 493.3 145.2 493.3 140.8C493.4 136.3 493.2 132.2 492.1 128.6C491.6 126.7 491 125.1 490.2 123.6C489.467 122.067 488.667 120.667 487.8 119.4C486.1 117 484.3 115.1 482.7 113.7C481.1 112.3 479.7 111.4 478.8 110.8C478.333 110.533 477.967 110.333 477.7 110.2C477.433 110.067 477.3 110 477.3 110C477.3 109.933 477.433 109.967 477.7 110.1C477.967 110.3 478.333 110.5 478.8 110.7C479.8 111.3 481.2 112.2 482.8 113.6C484.4 114.9 486.3 116.8 488 119.3C488.933 120.5 489.767 121.867 490.5 123.4C491.3 124.9 492 126.6 492.5 128.5C493.6 132.1 493.8 136.3 493.8 140.8C493.7 145.2 493.3 150 493.9 155C494.2 157.4 494.7 159.9 495.6 162.4C496.6 164.8 497.9 167.1 499.8 169C500.8 169.9 501.9 170.7 503.1 171.4C504.3 172 505.567 172.467 506.9 172.8C509.6 173.4 512.5 173.4 515.3 172.9C521 171.9 526 169.1 530.7 166.4C535.4 163.8 540.1 161.2 545.1 160C547.5 159.5 550 159.2 552.4 159.4C553.6 159.5 554.8 159.7 555.9 160C557 160.3 558.1 160.7 559.1 161.2C563.2 163.3 565.1 167.6 568.6 169C570.3 169.7 572.2 169.4 573.6 168.5C575 167.7 576 166.3 576.6 165C577.2 163.6 577.3 162.2 577.1 160.9C576.9 159.7 576.5 158.6 576.1 157.6C575.1 155.8 574 154.5 573.2 153.7C572.867 153.3 572.567 153 572.3 152.8C572.1 152.667 572 152.567 572 152.5V152.5Z" fill="#263238"/>
<path d="M408.6 210.298C408.533 210.165 408.5 209.998 408.5 209.798C408.4 209.498 408.4 209.098 408.2 208.498C407.9 207.398 407.2 205.698 405.7 203.998C404.3 202.398 402 200.698 399.1 199.398C396.2 198.098 392.6 197.498 388.7 196.698C384.8 195.998 380.3 195.098 376.3 192.498C372.3 189.798 369.1 185.198 368.3 179.898C367.5 174.598 369.2 168.598 373.3 164.298C377.5 160.098 383.3 157.998 388.1 154.298C389.3 153.298 390.3 152.198 391.2 151.098C392.1 149.798 392.8 148.498 393.2 147.098C393.9 144.298 393.9 141.298 394.2 138.398C394.3 136.898 394.5 135.498 395 134.098C395.4 132.698 396.1 131.498 397.1 130.398C399 128.298 401.7 127.098 404.2 126.398C406.8 125.698 409.3 125.198 411.8 124.498C414.2 123.898 416.4 122.998 418.3 121.598C420.3 120.298 421.9 118.598 423.3 116.998C424.7 115.298 425.9 113.598 427 111.898C429.2 108.598 431.1 105.398 433.1 102.898C435.1 100.398 437.1 98.4984 438.9 97.1984C440.8 95.8984 442.4 95.1984 443.5 94.7984C444.3 94.5318 444.9 94.3984 445.3 94.3984C445.3 94.3984 444.7 94.4984 443.6 94.8984C442.5 95.2984 440.9 95.9984 439.1 97.2984C437.3 98.6984 435.3 100.598 433.3 103.098C431.4 105.598 429.5 108.698 427.3 112.098C426.2 113.798 425 115.498 423.6 117.198C422.2 118.898 420.5 120.598 418.6 121.898C416.6 123.398 414.3 124.298 411.9 124.998C409.4 125.598 406.9 126.098 404.3 126.898C401.8 127.598 399.3 128.698 397.4 130.698C396.5 131.798 395.9 132.998 395.4 134.298C395 135.598 394.8 136.998 394.7 138.398C394.4 141.298 394.5 144.298 393.7 147.198C393.2 148.698 392.5 150.098 391.7 151.398C390.7 152.598 389.6 153.698 388.4 154.698C386 156.598 383.3 157.998 380.7 159.598C378.2 161.098 375.7 162.698 373.7 164.698C369.7 168.798 368 174.598 368.8 179.798C369.6 184.998 372.6 189.498 376.5 192.098C380.4 194.698 384.8 195.598 388.7 196.398C392.7 197.098 396.3 197.798 399.2 199.198C402.2 200.498 404.4 202.198 405.9 203.898C407.4 205.598 408 207.298 408.3 208.498C408.5 209.098 408.5 209.498 408.5 209.798C408.567 209.998 408.6 210.165 408.6 210.298V210.298Z" fill="#263238"/>
<path d="M488.4 120.499C488.4 120.499 488.133 120.433 487.6 120.299C487.133 120.166 486.467 119.899 485.6 119.499C484 118.699 481.8 117.399 479.7 115.599C477.5 113.799 475.9 111.799 474.9 110.299C474.433 109.499 474.067 108.866 473.8 108.399C473.6 107.999 473.5 107.766 473.5 107.699C473.6 107.699 474.2 108.599 475.2 110.099C476.3 111.499 477.9 113.399 480 115.199C482.1 116.999 484.2 118.299 485.8 119.199C487.4 119.999 488.4 120.399 488.4 120.499V120.499Z" fill="#455A64"/>
<path d="M521.6 188.7C521.6 188.8 521 188.6 519.9 188.3C518.7 188.1 517.1 187.8 515 187.7C513 187.6 510.5 187.7 507.8 187.9C505 188.1 502 188.4 498.8 188.3C495.6 188.2 492.6 187.8 490 186.7C487.4 185.6 485.4 184 484.1 182.3C482.7 180.7 482.1 179.1 481.8 178C481.667 177.4 481.6 176.933 481.6 176.6C481.533 176.333 481.533 176.166 481.6 176.1C481.6 176.1 481.7 176.8 482 177.9C482.3 179 483 180.5 484.3 182.1C485.7 183.7 487.7 185.2 490.2 186.2C492.7 187.3 495.7 187.7 498.8 187.8C502 187.9 505 187.6 507.7 187.4C510.5 187.3 513 187.2 515 187.3C517.1 187.5 518.8 187.8 519.9 188.1C520.5 188.233 520.933 188.366 521.2 188.5C521.467 188.633 521.6 188.7 521.6 188.7V188.7Z" fill="#455A64"/>
<path d="M580.6 234.2C580.6 234.2 580.5 234.233 580.3 234.3C580.1 234.4 579.8 234.5 579.4 234.6C578.6 234.8 577.3 234.9 575.8 234.4C574.3 234 572.6 233 571 231.4C569.4 229.8 568.2 227.5 567.2 224.9C566.1 222.4 565.1 219.4 563.4 216.7C562.5 215.3 561.4 214.1 560.2 212.8C558.9 211.7 557.5 210.5 555.9 209.6C549.7 205.8 541.4 204.3 533 204.8C524.5 205.2 516.6 206.9 509.2 207.4C501.8 208.1 495.1 207.3 489.8 205.4C484.5 203.6 480.7 200.7 478.7 198.4C478.1 197.9 477.7 197.3 477.3 196.8C476.967 196.333 476.7 195.933 476.5 195.6C476.3 195.267 476.133 195 476 194.8C475.867 194.6 475.8 194.5 475.8 194.5C475.8 194.5 475.867 194.6 476 194.8C476.133 195 476.333 195.233 476.6 195.5C476.8 195.9 477.1 196.3 477.5 196.7C477.8 197.2 478.2 197.8 478.8 198.3C480.9 200.5 484.6 203.3 489.9 205.1C495.2 206.8 501.8 207.6 509.2 206.9C516.5 206.4 524.4 204.7 533 204.3C541.5 203.8 549.8 205.3 556.2 209.2C557.8 210.2 559.2 211.3 560.5 212.5C561.7 213.8 562.9 215.1 563.7 216.5C565.5 219.3 566.4 222.2 567.5 224.8C568.5 227.4 569.7 229.6 571.2 231.2C572.7 232.8 574.4 233.8 575.9 234.2C577.3 234.7 578.6 234.6 579.4 234.5C580.2 234.3 580.6 234.1 580.6 234.2V234.2Z" fill="#455A64"/>
<path d="M463.9 115.699C476.7 116.099 483 132.699 482.2 145.399C481.2 159.599 479.5 176.799 476.4 187.099C472.333 200.833 464.8 207.899 453.8 208.299C453.8 208.199 452.9 215.199 450.1 233.999C448.4 245.199 447.2 251.399 434.4 249.999C421.7 248.599 406.2 223.199 407.6 211.399L415.7 127.099C416.1 123.299 419.4 120.399 423.3 120.499L463.9 115.699Z" fill="#FFBE9D"/>
<path d="M476.6 156.6C476.4 158 475.1 159.1 473.6 159C472.1 158.9 471 157.6 471.2 156.2C471.3 154.7 472.6 153.7 474.1 153.8C475.6 153.9 476.7 155.2 476.6 156.6Z" fill="#263238"/>
<path d="M477.7 151.099C477.4 151.499 475.2 150.099 472.3 150.399C469.4 150.499 467.4 152.199 467 151.799C466.8 151.699 467.1 150.999 468 150.299C468.9 149.499 470.4 148.799 472.3 148.699C474.1 148.499 475.7 149.099 476.6 149.699C477.5 150.399 477.9 150.999 477.7 151.099V151.099Z" fill="#263238"/>
<path d="M450.9 158.099C450.5 158.499 448.5 156.899 445.6 156.799C442.6 156.699 440.4 158.099 440.1 157.799C440 157.599 440.3 156.999 441.3 156.299C442.2 155.699 443.8 154.999 445.6 155.099C447.5 155.199 449 155.899 449.9 156.599C450.7 157.299 451 157.999 450.9 158.099Z" fill="#263238"/>
<path d="M456.3 173.598C456.3 173.398 458.2 173.398 461.1 173.398C461.9 173.398 462.6 173.298 462.8 172.798C463.1 172.298 462.9 171.498 462.6 170.598C462.133 168.665 461.667 166.665 461.2 164.598C459.2 156.198 457.8 149.298 458.2 149.198C458.5 149.098 460.4 155.898 462.4 164.398C462.867 166.465 463.3 168.432 463.7 170.298C463.9 171.198 464.3 172.198 463.7 173.298C463.5 173.798 462.9 174.098 462.4 174.198C461.9 174.298 461.5 174.198 461.1 174.198C458.1 173.998 456.3 173.798 456.3 173.598V173.598Z" fill="#263238"/>
<path d="M453.1 213.3C438.9 212.767 430.067 207.333 426.6 197C435.2 203.867 444.267 207.633 453.8 208.3L453.1 213.3Z" fill="#EB996E"/>
<path d="M451.3 153.099C450.8 153.799 448 152.799 444.6 152.399C441.2 151.899 438.2 152.299 437.9 151.499C437.8 151.099 438.5 150.499 439.7 149.999C441 149.499 442.9 149.199 444.9 149.399C447 149.699 448.8 150.399 449.9 151.199C451 151.999 451.5 152.799 451.3 153.099V153.099Z" fill="#263238"/>
<path d="M477.3 147.198C476.8 147.898 474.8 147.298 472.3 147.398C469.9 147.398 467.9 148.098 467.4 147.398C467.1 147.098 467.4 146.398 468.3 145.698C469.1 145.098 470.6 144.498 472.3 144.398C473.9 144.398 475.4 144.898 476.3 145.598C477.2 146.198 477.5 146.898 477.3 147.198V147.198Z" fill="#263238"/>
<path d="M449.2 178.899C450.6 177.999 452.2 177.699 453.8 177.899C454.6 178.099 455.4 178.399 456 179.099C456.6 179.899 456.7 180.999 456.7 182.099C456.7 182.799 456.6 183.399 456.4 183.999C456.2 184.599 455.8 185.199 455.2 185.399C454.6 185.699 453.9 185.699 453.2 185.499C452.1 185.399 451.1 185.099 450.1 184.399C449.2 183.799 448.5 182.799 448.4 181.699C448.3 180.599 448.9 179.399 450 179.099" fill="#EB996E"/>
<path d="M457.1 185.299C456.9 185.399 456.5 184.799 455.8 183.899C455.1 182.999 454.1 181.899 452.6 181.099C451.2 180.299 449.7 179.899 448.6 179.799C447.4 179.599 446.7 179.599 446.7 179.399C446.6 179.199 447.3 178.799 448.6 178.699C449.8 178.499 451.7 178.699 453.4 179.699C455.1 180.699 456.2 182.199 456.8 183.299C457.3 184.499 457.3 185.299 457.1 185.299V185.299Z" fill="#263238"/>
<path d="M406.3 205.6C399.2 203.8 394.5 195.4 396.7 188.4C398.2 183.9 401.8 180.4 405.6 177.4C409.6 174.2 413.767 171.267 418.1 168.6C419.3 167.9 420.8 167.2 421.8 168.1C422.6 168.6 422.7 169.6 422.8 170.5C423.4 177.6 423.5 184.9 421.1 191.5C418.8 198.2 413.4 204.2 406.5 205.6" fill="#263238"/>
<path d="M554.2 242.8L492.5 259.5L500.2 216.3L534.3 209.1L514.4 160.5L512.9 159.3C503.167 156.1 496.433 154.034 492.7 153.1C487.9 151.9 483.3 151.1 479.7 150.5C477.8 150.2 476.3 147.2 477.7 145.8C478.9 144.6 480.7 144.1 482.9 143.9C486 143.7 490.4 143.7 494.1 144C496.6 144.2 502.4 140.3 498.2 137.3C497.533 137.9 496.733 138.534 495.8 139.2C494 140.4 490.3 137.3 491.7 135.2C491.767 135.134 491.833 135.1 491.9 135.1C490.8 136.1 489.7 137.2 488.7 138C487.2 139.3 484.9 139.5 483.9 139.2C482.167 138.667 482.167 136.9 483.9 133.9C483.3 134.567 482.433 135.234 481.3 135.9C480.4 136.5 479 136.9 477.6 137.4C474.5 138.6 472.2 136.1 473.5 134.2C476 130.3 486.2 122.5 487.8 121.9C490 121.1 492.2 122.7 493.5 123.7C494.2 123.2 495 122.9 495.8 123C498.267 123.134 499.967 123.7 500.9 124.7C501.833 123.167 503.333 122.4 505.4 122.4C507.133 122.4 508.233 123.067 508.7 124.4C511.967 121.6 515.233 122 518.5 125.6C520.5 127.8 522.467 130.167 524.4 132.7L533.4 151.2L566.2 203.9C574.6 217.1 568 235.6 554.2 242.8V242.8Z" fill="#FFBE9D"/>
<path d="M512.9 159.299C512.9 159.299 512.633 159.233 512.1 159.099C511.567 158.966 510.833 158.766 509.9 158.499C508 157.899 505.2 157.099 501.8 156.099C500.133 155.566 498.267 154.999 496.2 154.399C494.2 153.799 492.1 153.099 489.8 152.499C487.5 151.999 485.1 151.399 482.6 150.999C481.4 150.799 480 150.999 478.7 150.299C478.367 150.166 478.067 149.966 477.8 149.699C477.7 149.499 477.6 149.399 477.5 149.099L477.4 148.599C477.3 147.899 477.3 147.199 477.5 146.499C477.8 145.799 478.3 145.199 479 144.799C479.6 144.499 480.2 144.299 480.9 144.099C482.2 143.699 483.5 143.599 484.8 143.599C487.4 143.599 489.9 143.999 492.2 143.899C493.4 143.899 494.533 143.799 495.6 143.599C496.7 143.399 497.7 143.099 498.8 142.799C500.8 142.299 502.8 141.899 504.6 142.099C506.4 142.199 508 142.699 509.3 143.299C510.6 143.799 511.7 144.399 512.6 144.899C513.467 145.366 514.1 145.766 514.5 146.099C514.967 146.366 515.2 146.499 515.2 146.499C515.2 146.499 514.967 146.399 514.5 146.199C513.967 145.866 513.3 145.499 512.5 145.099C511.6 144.599 510.5 144.099 509.2 143.499C507.9 142.999 506.3 142.599 504.6 142.499C502.8 142.299 500.9 142.699 498.9 143.199C497.9 143.499 496.8 143.799 495.7 143.999C494.567 144.199 493.4 144.333 492.2 144.399C489.8 144.499 487.4 144.099 484.8 144.099C483.6 144.099 482.3 144.199 481 144.599C479.8 144.999 478.4 145.399 478 146.699C477.9 147.199 477.9 147.899 477.9 148.499L478 148.999C478 149.099 478.1 149.199 478.2 149.299C478.4 149.566 478.633 149.766 478.9 149.899C480 150.399 481.4 150.299 482.7 150.499C485.2 150.899 487.6 151.499 489.9 152.099C492.2 152.699 494.4 153.299 496.4 153.999C498.4 154.599 500.233 155.166 501.9 155.699C505.3 156.799 508 157.699 510 158.299C510.933 158.566 511.667 158.799 512.2 158.999C512.667 159.199 512.9 159.299 512.9 159.299V159.299Z" fill="#EB996E"/>
<path d="M487.7 122C487.7 122.1 486.1 123 483.8 124.8C482.6 125.7 481.2 126.8 479.8 128.2C478.4 129.5 477 131.1 475.2 132.6C474.4 133.3 473.6 134.1 473.4 135.1C473.3 135.6 473.3 136.1 473.6 136.4C473.8 136.8 474.2 137.1 474.6 137.2C475.5 137.5 476.4 137.4 477.2 137.3C478.067 137.1 478.833 136.867 479.5 136.6C482.3 135.5 483.5 134.1 483.6 134.2C483.6 134.2 483.3 134.5 482.7 135.1C482.1 135.6 481.1 136.4 479.7 137C478.967 137.267 478.167 137.5 477.3 137.7C476.5 137.9 475.5 138 474.4 137.7C473.9 137.5 473.4 137.2 473.1 136.7C472.8 136.2 472.8 135.6 472.9 135C473.1 133.8 474 132.9 474.9 132.2C476.6 130.8 478.1 129.2 479.5 127.8C480.9 126.5 482.3 125.3 483.5 124.5C484.8 123.6 485.8 123 486.5 122.6C487.2 122.2 487.6 121.9 487.7 122V122Z" fill="#EB996E"/>
<path d="M500.2 126.1C500.2 126.1 499.8 126.6 499 127.5C498.133 128.434 497.033 129.634 495.7 131.1C494.3 132.6 492.6 134.4 490.8 136.4C489.8 137.5 488.7 138.4 487.3 139.1C486.6 139.4 485.9 139.7 485 139.7C484.2 139.6 483.4 139.4 482.7 138.7C482.4 138.4 482.2 137.9 482.2 137.5C482.133 137.034 482.167 136.6 482.3 136.2C482.6 135.4 482.9 134.7 483.4 134C485.2 132.134 486.833 130.367 488.3 128.7C489.8 127.1 491.2 125.8 492.4 124.7C493 124.2 493.5 123.7 494.1 123.4C494.7 123 495.3 123.1 495.7 123C496.6 122.9 497.1 123 497.1 123.1C497.1 123.1 496.6 123.1 495.7 123.2C495.3 123.3 494.7 123.3 494.2 123.6C493.7 123.9 493.2 124.4 492.6 125C491.5 126.1 490.1 127.4 488.6 129C487.2 130.7 485.5 132.4 483.8 134.3C483.4 134.9 483 135.6 482.8 136.3C482.733 136.7 482.7 137.067 482.7 137.4C482.8 137.8 482.9 138.1 483.1 138.4C483.6 138.9 484.3 139.1 485 139.1C485.8 139.1 486.5 138.9 487.1 138.6C488.4 138 489.5 137.1 490.4 136.1C492.3 134.2 494 132.4 495.4 130.9C496.867 129.434 498.033 128.267 498.9 127.4C499.233 127 499.533 126.667 499.8 126.4C500 126.2 500.133 126.1 500.2 126.1V126.1Z" fill="#EB996E"/>
<path d="M515.5 130.901C515.5 131.001 515.4 131.201 515.1 131.501C514.8 131.801 514.1 132.101 513.4 131.901C512.7 131.801 512.2 131.401 512 131.001C511.8 130.601 511.8 130.301 511.8 130.301C511.9 130.301 512 130.501 512.3 130.801C512.6 131.001 513 131.301 513.5 131.401C514.1 131.501 514.6 131.401 514.9 131.201C515.2 131.101 515.4 130.901 515.5 130.901Z" fill="#EB996E"/>
<path d="M516.7 135.499C516.6 135.599 515.8 134.899 515.2 133.699C514.5 132.599 514.2 131.599 514.3 131.599C514.5 131.499 515 132.399 515.6 133.499C516.3 134.599 516.8 135.399 516.7 135.499Z" fill="#EB996E"/>
<path d="M518.9 153.401C518.8 153.401 518.4 152.701 517.9 151.301C517.5 150.001 517.1 148.001 517.1 145.901C517.2 143.701 517.6 141.701 518.1 140.401C518.6 139.101 519 138.301 519.1 138.401C519.3 138.401 517.7 141.601 517.6 145.901C517.6 150.101 519.1 153.401 518.9 153.401Z" fill="#EB996E"/>
<path d="M545.8 222.701C545.7 222.701 545.6 221.601 545.1 220.001C544.8 219.201 544.4 218.301 543.9 217.301C543.4 216.301 542.7 215.301 541.8 214.301C541 213.301 540 212.501 539.1 211.801C538.2 211.201 537.3 210.601 536.6 210.301C535 209.601 534 209.301 534 209.201C534 209.201 534.233 209.235 534.7 209.301C535.2 209.401 535.9 209.601 536.7 209.901C537.5 210.301 538.4 210.801 539.4 211.401C540.3 212.101 541.3 212.901 542.2 213.901C543.1 214.901 543.8 216.001 544.3 217.001C544.9 218.101 545.2 219.101 545.5 219.901C545.7 220.801 545.8 221.501 545.8 221.901C545.867 222.435 545.867 222.701 545.8 222.701V222.701Z" fill="#EB996E"/>
<path d="M439 333.7C437.2 335.9 435.833 336.133 434.9 334.4C438.033 342.6 438.233 347.266 435.5 348.4C432.767 349.6 430.967 349.4 430.1 347.8C427.967 351.8 425.367 352.3 422.3 349.3C421.7 348.7 421.033 347.566 420.3 345.9C416.767 350.966 413.8 351.166 411.4 346.5C410.067 343.9 409.4 342.466 409.4 342.2C401.933 345.533 396 347.766 391.6 348.9C385.467 350.5 379.7 351.4 374.3 351.6L298.3 312.6C287.8 307.3 281.1 296.3 281.9 284.6C282.2 279.1 284.1 273.9 287.9 270L317.9 239.1L343.5 265.8L325.2 284.8L389.8 332.8L401.9 327.1C408.367 322.833 412.133 320.966 413.2 321.5C416.867 319.233 420.167 318.766 423.1 320.1C425.767 318.766 428.533 318.4 431.4 319C435.8 319.9 441.6 330.3 439 333.7V333.7Z" fill="#FFBE9D"/>
<path d="M422.3 320.7C422.3 320.7 422.6 320.5 423.1 320.4C423.7 320.2 424.6 320.2 425.6 320.4C426.6 320.7 427.7 321.3 428.8 322.1C429.4 322.5 429.9 323 430.4 323.5C430.9 324.1 431.3 324.8 431.7 325.5C433.1 328.3 434.1 330.9 434.7 332.9C434.9 333.9 435.2 334.7 435.3 335.2C435.433 335.8 435.467 336.1 435.4 336.1C435.3 336.1 435 334.9 434.3 333C433.6 331.1 432.6 328.5 431.2 325.7C430.9 325 430.5 324.4 430.1 323.9C429.6 323.3 429 322.9 428.5 322.5C427.5 321.7 426.4 321.1 425.5 320.8C423.6 320.2 422.3 320.8 422.3 320.7V320.7Z" fill="#EB996E"/>
<path d="M430.1 347.8C430 347.8 429.8 347.4 429.5 346.7C429.1 345.9 428.633 344.867 428.1 343.6C426.9 341 425.2 337.5 423.5 333.5C422.7 331.5 422 329.5 420.9 328C419.8 326.5 418.4 325.5 417.2 324.9C415.9 324.3 414.7 324.2 414 324.3C413.2 324.5 412.8 324.7 412.8 324.6C412.8 324.6 412.867 324.534 413 324.4C413.2 324.334 413.5 324.234 413.9 324.1C414.7 324 416 324 417.3 324.6C418.7 325.1 420.2 326.2 421.3 327.7C422.4 329.3 423.2 331.3 424 333.3C425.6 337.3 427.3 340.9 428.4 343.5C429 344.8 429.4 345.9 429.7 346.6C430 347.4 430.1 347.8 430.1 347.8V347.8Z" fill="#EB996E"/>
<path d="M400.5 332.4C400.4 332.3 400.8 332.1 401.5 331.8C402.3 331.4 403.267 330.934 404.4 330.4C405 330.1 405.6 329.8 406.4 329.5C407.2 329.2 408.1 329 409 329.1C409.9 329.2 410.9 329.5 411.7 330.1C412.5 330.8 413.1 331.6 413.7 332.5C414.2 333.4 414.7 334.3 415.1 335.2C415.5 336.067 415.933 336.9 416.4 337.7C417.3 339.2 418.1 340.6 418.7 341.8C419.3 343 419.7 344.1 420 344.8C420.2 345.5 420.3 345.9 420.3 345.9C420.2 345.9 419.7 344.4 418.4 342C417.7 340.8 416.9 339.5 416 337.9C415.533 337.1 415.067 336.267 414.6 335.4C414.2 334.6 413.8 333.7 413.2 332.8C412.7 331.9 412.1 331.1 411.4 330.6C410.7 330 409.8 329.7 408.9 329.6C408.1 329.5 407.3 329.6 406.5 329.9C405.8 330.2 405.1 330.5 404.5 330.8C403.367 331.267 402.4 331.667 401.6 332C400.9 332.3 400.5 332.4 400.5 332.4V332.4Z" fill="#EB996E"/>
<path d="M401.9 327.099C401.9 327.099 401.6 327.299 401 327.599C400.4 327.999 399.5 328.399 398.5 328.999C396.4 330.099 393.4 331.599 390.2 333.199C386.9 334.899 384 336.399 381.8 337.399C380.7 337.899 379.8 338.299 379.2 338.599C378.6 338.899 378.3 338.999 378.3 338.999C378.2 338.899 378.6 338.699 379.1 338.399C379.7 338.099 380.6 337.599 381.6 337.099C383.8 335.899 386.7 334.399 389.9 332.799C393.2 331.099 396.2 329.699 398.3 328.599C399.4 328.099 400.3 327.699 400.9 327.399C401.5 327.199 401.8 326.999 401.9 327.099V327.099Z" fill="#EB996E"/>
<path d="M326.1 284.9C326.1 285.1 322.7 284.2 318.5 284.7C314.3 285.1 311.2 286.9 311.1 286.7C311.1 286.6 311.8 286.2 313.1 285.6C314.4 285 316.3 284.4 318.4 284.2C320.6 283.9 322.5 284.1 323.9 284.3C325.3 284.6 326.1 284.9 326.1 284.9V284.9Z" fill="#EB996E"/>
<path d="M464.4 121.199C461.1 123.099 457.2 123.499 453.5 124.299C449.8 125.099 445.8 126.599 443.9 129.899C441.8 133.399 442.5 137.899 440.6 141.499C437.3 147.599 428 148.399 424.7 154.599C422.3 159.199 424.4 164.899 424.3 170.099C424.3 170.899 424.233 171.699 424.1 172.499C425.6 177.499 424.4 182.999 423.2 188.199C421.8 194.099 420.6 200.699 423.7 205.999C427.5 212.699 436.4 214.399 441.9 219.699C444.2 221.899 445.9 224.699 448.5 226.399C451.7 228.499 456.1 228.599 459.4 226.699C459.3 231.199 454.1 234.299 449.6 233.799C445.1 233.399 441.3 230.499 437.7 227.799C434.2 224.999 430.4 221.999 425.9 221.399C422.9 220.899 419.9 221.599 416.9 220.999C410.7 219.799 406.6 213.799 404.3 207.899C402.1 201.899 400.8 195.399 396.9 190.399C394.6 187.399 391.5 185.099 389.8 181.799C387.1 176.199 388.9 169.399 392.4 164.199C395.8 159.099 400.6 154.999 404.3 150.099C405.167 149.033 405.933 147.899 406.6 146.699C407 141.966 407.4 137.199 407.8 132.399C408.2 128.499 408.6 124.299 411.2 121.399C413.7 118.599 417.5 117.499 421.1 116.699C436.7 113.199 452.7 111.499 468.6 111.699C470.1 115.199 467.7 119.299 464.4 121.199V121.199Z" fill="#263238"/>
<path d="M480.7 219C480.767 219 480.733 219.067 480.6 219.2C480.467 219.4 480.3 219.633 480.1 219.9C479.6 220.5 478.9 221.4 477.8 222.3C476.7 223.2 475.2 224.1 473.2 224.7C471.3 225.4 469 225.8 466.4 225.5C463.9 225.3 461.1 224.3 458.8 222.4C456.4 220.5 454.3 218.1 451.6 216.2C450.2 215.2 448.7 214.5 447 214.3C445.3 214 443.6 214.5 441.9 215.2C440.2 215.8 438.5 216.7 436.6 217C434.7 217.3 432.7 216.9 430.9 216C429.1 215.1 427.6 214 426.1 212.8C424.6 211.6 423.2 210.5 421.9 209.1C420.6 207.8 419.5 206.3 418.9 204.6C418.2 202.9 418.2 201.1 418.5 199.4C418.9 197.7 419.5 196.2 420.1 194.7C420.633 193.233 421.133 191.8 421.6 190.4C422.4 187.5 423 184.8 423.4 182.3C424.2 177.3 424.2 173.2 424.1 170.4C424.033 169 423.933 167.933 423.8 167.2C423.8 166.8 423.8 166.5 423.8 166.3C423.733 166.1 423.733 166 423.8 166C423.8 166 423.8 166.1 423.8 166.3C423.867 166.5 423.9 166.767 423.9 167.1C424.033 167.9 424.167 169 424.3 170.4C424.5 173.2 424.5 177.4 423.8 182.4C423.4 184.9 422.8 187.6 422 190.5C421.533 191.967 421.033 193.433 420.5 194.9C419.9 196.4 419.3 197.9 419 199.5C418.7 201.1 418.7 202.8 419.3 204.4C419.9 206 421 207.5 422.3 208.8C423.5 210.1 424.9 211.2 426.4 212.4C427.9 213.5 429.4 214.7 431.1 215.5C432.8 216.4 434.7 216.8 436.5 216.5C438.3 216.2 440 215.4 441.7 214.7C443.4 214 445.2 213.5 447.1 213.8C448.9 214 450.5 214.8 451.9 215.8C454.6 217.8 456.7 220.2 459 222C461.3 223.9 464 224.9 466.5 225.1C469 225.4 471.3 225.1 473.1 224.4C475 223.8 476.6 223 477.7 222.1C479.9 220.4 480.7 218.9 480.7 219V219Z" fill="#263238"/>
<path d="M380.8 187.199C380.6 186.933 380.333 186.566 380 186.099C379.6 185.299 379 184.099 378.6 182.399C378.2 180.799 378.2 178.599 378.7 176.299C379.2 173.899 380.3 171.299 382.2 168.899C384 166.399 386.5 164.099 389.4 161.999C392.3 159.899 395.5 157.899 398.8 155.599C402 153.299 405.3 150.599 407.7 146.899C408.9 145.099 409.7 143.099 410.4 140.999C411 138.799 411.5 136.599 412 134.299C412.5 132.099 413.1 129.799 414 127.699C414.9 125.699 416.2 123.799 417.9 122.299C419.6 120.899 421.6 119.899 423.6 119.199C425.6 118.499 427.7 118.199 429.7 117.999C433.7 117.599 437.5 118.099 441.1 118.399C444.6 118.599 447.9 118.799 450.9 118.499C453.9 118.199 456.5 117.299 458.7 116.199C460.8 114.999 462.4 113.699 463.4 112.399C464.4 110.999 465 109.799 465.3 108.999C465.6 108.199 465.7 107.699 465.7 107.699C465.7 108.033 465.6 108.466 465.4 108.999C465.1 109.899 464.6 111.099 463.6 112.499C462.5 113.799 460.9 115.299 458.8 116.399C456.7 117.599 454 118.499 451 118.799C447.9 119.199 444.6 119.099 441 118.799C437.5 118.499 433.7 118.099 429.7 118.499C427.7 118.599 425.7 118.999 423.8 119.699C421.8 120.299 419.9 121.299 418.3 122.699C416.6 124.099 415.3 125.899 414.5 127.999C413.6 129.999 413 132.199 412.5 134.399C412 136.699 411.5 138.899 410.9 141.099C410.2 143.299 409.3 145.399 408.1 147.199C405.7 150.899 402.3 153.599 399 155.999C395.8 158.299 392.5 160.299 389.6 162.399C386.8 164.499 384.3 166.699 382.5 169.099C380.6 171.399 379.5 173.999 379 176.299C378.5 178.699 378.5 180.799 378.8 182.399C379.5 185.699 380.9 187.199 380.8 187.199V187.199Z" fill="#455A64"/>
<path d="M383.8 192.398C382.933 191.865 381.9 190.898 380.7 189.498C379.8 188.498 378.7 187.098 378 185.298C377.7 184.298 377.4 183.298 377.6 182.098C377.7 180.998 378.1 179.898 378.9 178.898C380.5 176.898 383.2 175.798 386 175.198C387.4 174.898 388.9 174.698 390.4 174.298C391.9 173.998 393.3 173.498 394.6 172.598C395.9 171.598 397 170.398 397.7 168.898C398.5 167.398 399.1 165.798 399.7 164.098C400.2 162.498 400.8 160.698 401.7 159.098C402.5 157.498 403.8 155.998 405.5 154.998C407.1 153.898 408.9 153.398 410.7 152.898C412.4 152.498 414.2 152.098 415.8 151.498C419.2 150.498 421.8 148.198 423.8 145.698C425.8 143.198 427.3 140.498 428.7 137.998C430.1 135.498 431.6 133.198 433.2 131.298C434.8 129.398 436.6 127.998 438.3 127.098C440.1 126.198 441.7 125.798 443.1 125.698C444.5 125.598 445.6 125.798 446.3 125.998C446.767 126.065 447.1 126.165 447.3 126.298C447.3 126.298 446.9 126.198 446.2 126.098C445.5 125.898 444.5 125.798 443.1 125.898C441.8 125.998 440.2 126.498 438.5 127.398C436.8 128.298 435 129.698 433.5 131.598C431.9 133.398 430.5 135.698 429.1 138.198C427.6 140.698 426.2 143.398 424.1 145.998C423.1 147.298 422 148.498 420.6 149.598C419.3 150.598 417.7 151.498 416 151.998C414.3 152.598 412.5 152.998 410.8 153.398C409 153.898 407.3 154.398 405.7 155.398C404.2 156.398 403 157.798 402.2 159.398C401.3 160.898 400.7 162.598 400.1 164.298C399.6 165.898 399 167.598 398.2 169.098C397.4 170.598 396.3 171.998 394.9 172.998C393.5 173.898 392 174.398 390.5 174.798C389 175.098 387.5 175.398 386.1 175.598C383.3 176.198 380.7 177.198 379.2 179.098C378.4 179.998 378 181.098 377.9 182.198C377.8 183.198 378 184.298 378.3 185.198C378.9 186.998 380 188.298 380.8 189.398C381.7 190.398 382.5 191.198 383 191.698C383.2 191.898 383.4 192.065 383.6 192.198C383.733 192.332 383.8 192.398 383.8 192.398V192.398Z" fill="#455A64"/>
<path d="M506.9 127.799C506.9 127.865 506.7 128.132 506.3 128.599C506 129.099 505.4 129.799 504.8 130.599C503.4 132.199 501.4 134.399 499.1 136.699C498 137.899 496.9 139.099 495.5 139.599C494.7 139.799 494 139.799 493.3 139.599C492.7 139.299 492.3 138.799 492 138.299C491.5 137.299 491.5 136.399 491.6 135.799C491.7 135.199 491.8 134.899 491.9 134.899C491.9 134.899 491.8 135.199 491.8 135.799C491.8 136.399 491.8 137.299 492.3 138.099C492.6 138.599 493 138.999 493.5 139.199C494 139.299 494.7 139.299 495.3 139.099C496.6 138.699 497.6 137.499 498.8 136.399C501.1 134.099 503.1 131.899 504.5 130.399C505.9 128.799 506.8 127.799 506.9 127.799V127.799Z" fill="#EB996E"/>
<path d="M514.5 127.9C514.5 127.9 514.3 128.2 513.9 128.6C513.5 129.1 512.9 129.8 512.1 130.6C511.3 131.467 510.4 132.434 509.4 133.5C508.933 134.1 508.4 134.667 507.8 135.2C507.3 135.8 506.7 136.5 505.9 137C505.2 137.5 504.4 137.9 503.5 137.9C502.6 138 501.7 137.7 501.2 137C501 136.6 500.9 136.2 500.9 135.8C500.9 135.4 501 135 501.2 134.7C501.6 134.1 502 133.7 502.3 133.2C503 132.3 503.5 131.6 503.9 131.1C504.3 130.6 504.5 130.3 504.5 130.3C504.6 130.3 504.4 130.6 504.1 131.2C503.7 131.7 503.2 132.5 502.6 133.4C502.3 133.9 501.9 134.4 501.6 134.9C501.3 135.5 501.2 136.1 501.6 136.7C502 137.2 502.7 137.5 503.5 137.4C504.2 137.4 505 137 505.6 136.6C506.3 136.1 506.9 135.5 507.5 134.9C508.033 134.3 508.567 133.734 509.1 133.2C510.1 132.134 511 131.2 511.8 130.4C512.6 129.6 513.3 128.9 513.7 128.5C514.2 128.1 514.5 127.8 514.5 127.9V127.9Z" fill="#EB996E"/>
<path d="M618.9 433.999C620.6 430.299 624.2 427.499 628.3 426.799C632.3 426.099 636.6 427.499 639.5 430.399C637.5 433.899 634.1 436.199 630.3 437.499C625.9 438.999 621.1 437.199 618.9 433.999V433.999Z" fill="#F97316"/>
<path d="M611.8 435.6C611.8 435.6 612.9 435.2 614.7 434.7C616.5 434.3 619 433.8 621.8 433.3C624.6 432.9 627.1 432.5 629 432.3C630.8 432.1 632 432 632 432.1C632 432.2 630.9 432.4 629 432.7C627 433 624.6 433.4 621.9 433.9C619.1 434.3 616.6 434.8 614.8 435.1C612.9 435.4 611.8 435.7 611.8 435.6V435.6Z" fill="#263238"/>
<path d="M261.5 370.699C265.7 374.199 268 379.899 267.5 385.299C266.9 390.799 263.4 395.899 258.5 398.399C254.8 388.999 253.4 378.799 261.5 370.699V370.699Z" fill="#F97316"/>
<path d="M306.5 395.999C300.2 399.199 292.2 398.899 286.1 395.399C279.9 391.799 275.8 384.999 275.4 377.899C290.1 375.699 299.5 384.999 306.5 395.999V395.999Z" fill="#F97316"/>
<path d="M243.5 343.1C243.5 343.1 243.667 343.266 244 343.6C244.333 344 244.733 344.5 245.2 345.1C246.3 346.4 247.9 348.3 249.8 350.6C253.7 355.2 259.2 361.5 265.7 368C269 371.3 272.1 374.3 275.1 376.9C278.1 379.6 280.9 381.9 283.3 383.7C285.7 385.5 287.7 386.9 289.2 387.7C290.6 388.6 291.5 388.9 291.4 389C291.4 389 291.2 388.9 290.8 388.7C290.4 388.5 289.8 388.3 289.1 387.9C287.5 387.1 285.5 385.7 283 384C280.6 382.2 277.8 379.9 274.8 377.3C271.8 374.6 268.6 371.6 265.3 368.4C258.8 361.8 253.4 355.5 249.5 350.8C247.6 348.5 246.1 346.6 245.1 345.2C244.633 344.6 244.233 344.1 243.9 343.7C243.633 343.366 243.5 343.166 243.5 343.1V343.1Z" fill="#263238"/>
<path d="M260.7 384.9C260.6 384.9 261 383.5 261.2 381.2C261.5 379 261.7 375.8 261.3 372.3C261 368.8 260.2 365.8 259.4 363.6C258.7 361.5 258 360.2 258.1 360.1C258.2 360.1 258.3 360.4 258.6 361C258.9 361.6 259.3 362.4 259.7 363.5C260.6 365.6 261.5 368.7 261.9 372.3C262.2 375.8 262 379 261.6 381.3C261.4 382.4 261.2 383.3 261 384C260.9 384.6 260.7 384.9 260.7 384.9Z" fill="#263238"/>
<path d="M702 182.499C699.6 179.299 698.8 174.799 700.1 170.899C701.4 166.999 704.7 163.899 708.6 162.699C710.8 166.099 711.1 170.299 710.5 174.199C709.7 178.799 705.9 182.199 702 182.499V182.499Z" fill="#F97316"/>
<path d="M700.1 189.6C700 189.6 700.2 188.4 700.7 186.6C701.1 184.8 701.9 182.4 702.8 179.7C703.7 177 704.6 174.6 705.3 172.9C706 171.2 706.5 170.1 706.5 170.1C706.6 170.2 706.3 171.3 705.7 173C705 174.9 704.2 177.3 703.3 179.9C702.4 182.5 701.6 185 701 186.7C700.5 188.5 700.2 189.6 700.1 189.6V189.6Z" fill="#263238"/>
<path d="M657.9 256.899C655.9 249.299 657.8 240.699 663 234.699C668.1 228.599 676.3 225.399 684.2 226.199C685.5 233.799 683.2 241.499 679.2 248.099C674.5 255.799 665.1 259.099 657.9 256.899V256.899Z" fill="#F97316"/>
<path d="M628.4 286.5C628.4 286.5 628.533 286.333 628.8 286C629.133 285.6 629.567 285.1 630.1 284.5C631.3 283.3 633 281.5 635.1 279.3C639.2 274.9 645.1 268.9 651.6 262.3C658.1 255.7 664.1 249.7 668.4 245.5C670.5 243.4 672.3 241.6 673.5 240.4C674.1 239.866 674.6 239.433 675 239.1C675.333 238.766 675.5 238.6 675.5 238.6C675.5 238.6 675.333 238.766 675 239.1C674.667 239.5 674.233 240 673.7 240.6C672.5 241.8 670.8 243.6 668.7 245.7C664.4 250.1 658.5 256 652 262.6C645.5 269.2 639.6 275.2 635.3 279.5C633.2 281.7 631.5 283.4 630.3 284.7C629.7 285.233 629.233 285.7 628.9 286.1C628.567 286.433 628.4 286.566 628.4 286.5V286.5Z" fill="#263238"/>
<g opacity="0.3">
<path opacity="0.3" d="M657.9 256.899C655.9 249.299 657.8 240.699 663 234.699C668.1 228.599 676.3 225.399 684.2 226.199C685.5 233.799 683.2 241.499 679.2 248.099C674.5 255.799 665.1 259.099 657.9 256.899V256.899Z" fill="black"/>
</g>
<path d="M644.3 259.899C640 257.699 636.9 253.299 636.2 248.399C635.6 243.599 637.5 238.499 641.2 235.299C645.2 237.799 647.7 242.099 649.1 246.599C650.6 251.899 648.3 257.499 644.3 259.899Z" fill="#F97316"/>
<g opacity="0.3">
<path opacity="0.3" d="M644.3 259.899C640 257.699 636.9 253.299 636.2 248.399C635.6 243.599 637.5 238.499 641.2 235.299C645.2 237.799 647.7 242.099 649.1 246.599C650.6 251.899 648.3 257.499 644.3 259.899Z" fill="black"/>
</g>
<path d="M645.9 268.399C645.833 268.399 645.7 268.099 645.5 267.499C645.4 266.899 645.2 265.999 645 264.999C644.6 262.799 644.1 259.799 643.7 256.399C643.3 253.099 643 250.099 642.9 247.899C642.7 245.699 642.7 244.299 642.7 244.299C642.8 244.299 643 245.699 643.2 247.799C643.5 250.199 643.9 253.099 644.2 256.399C644.6 259.699 645 262.699 645.3 264.899C645.7 267.099 645.9 268.399 645.9 268.399V268.399Z" fill="#263238"/>
<path d="M457 375.798C460.1 368.598 466.9 363.198 474.6 361.798C482.3 360.398 490.6 363.098 496 368.698C484.6 377.498 471.4 383.498 457 375.798Z" fill="#F97316"/>
<g opacity="0.3">
<path opacity="0.3" d="M457 375.798C460.1 368.598 466.9 363.198 474.6 361.798C482.3 360.398 490.6 363.098 496 368.698C484.6 377.498 471.4 383.498 457 375.798Z" fill="black"/>
</g>
<path d="M450.6 379.299C450.6 379.299 450.9 379.099 451.5 378.599C452.1 378.199 453 377.599 454.2 376.999C456.4 375.599 459.7 373.999 463.5 372.799C467.3 371.499 470.9 370.899 473.5 370.599C474.8 370.399 475.9 370.399 476.6 370.399C477.3 370.299 477.7 370.299 477.7 370.399C477.7 370.499 476.1 370.599 473.6 370.899C471 371.299 467.4 371.999 463.7 373.299C459.9 374.499 456.6 376.099 454.3 377.299C452 378.499 450.7 379.399 450.6 379.299V379.299Z" fill="#263238"/>
<path d="M193.4 245.5C198.9 243 205.6 243.4 210.8 246.5C215.9 249.7 219.3 255.5 219.4 261.6C208.4 260.7 197.7 257.3 193.4 245.5V245.5Z" fill="#F97316"/>
<g opacity="0.3">
<path opacity="0.3" d="M193.4 245.5C198.9 243 205.6 243.4 210.8 246.5C215.9 249.7 219.3 255.5 219.4 261.6C208.4 260.7 197.7 257.3 193.4 245.5V245.5Z" fill="black"/>
</g>
<path d="M187.9 244.199C187.967 244.199 188.267 244.233 188.8 244.299C189.4 244.299 190.2 244.399 191.2 244.599C193.2 244.999 195.9 245.799 198.7 247.099C201.6 248.299 204 249.799 205.6 250.999C206.4 251.599 207.033 252.099 207.5 252.499C207.9 252.833 208.1 253.033 208.1 253.099C208.1 253.199 207.1 252.399 205.4 251.299C203.7 250.199 201.3 248.799 198.5 247.499C195.7 246.299 193.1 245.499 191.1 244.999C189.2 244.499 187.9 244.299 187.9 244.199V244.199Z" fill="#263238"/>
<path d="M551.8 363.599C551.1 358.199 553.3 352.599 557.4 349.099C561.6 345.599 567.5 344.399 572.6 345.899C568.9 355.099 563 363.199 551.8 363.599V363.599Z" fill="#F97316"/>
<path d="M549.1 367.9C549.1 367.8 549.5 366.8 550.4 365.2C551.3 363.6 552.7 361.5 554.5 359.5C556.4 357.4 558.3 355.8 559.8 354.7C561.3 353.7 562.3 353.1 562.3 353.2C562.3 353.3 561.4 353.9 560 355C558.6 356.1 556.7 357.8 554.9 359.8C553.1 361.8 551.7 363.9 550.7 365.4C549.7 366.9 549.2 367.9 549.1 367.9V367.9Z" fill="#263238"/>
<path d="M630.5 311.6C628.8 306.5 629.9 300.5 633.3 296.4C636.7 292.2 642.3 289.8 647.6 290.4C645.7 300.1 641.4 309.2 630.5 311.6V311.6Z" fill="#F97316"/>
<g opacity="0.3">
<path opacity="0.3" d="M630.5 311.6C628.8 306.5 629.9 300.5 633.3 296.4C636.7 292.2 642.3 289.8 647.6 290.4C645.7 300.1 641.4 309.2 630.5 311.6V311.6Z" fill="black"/>
</g>
<path d="M628.7 316.3C628.6 316.3 628.8 315.2 629.4 313.5C630 311.8 631 309.5 632.4 307.1C633.8 304.7 635.4 302.7 636.7 301.4C637.9 300.1 638.8 299.4 638.8 299.4C638.9 299.5 638.1 300.3 636.9 301.7C635.8 303 634.3 305 632.8 307.3C631.4 309.7 630.4 311.9 629.8 313.6C629.1 315.3 628.8 316.4 628.7 316.3V316.3Z" fill="#263238"/>
<path d="M37.3 240.099C38.5 234.799 42.4 230.299 47.4 228.399C52.5 226.399 58.5 227.199 62.8 230.399C56.2 237.799 48 243.499 37.3 240.099Z" fill="#F97316"/>
<path d="M33.4 243.299C33.3 243.199 34.1 242.399 35.4 241.199C36.8 239.999 38.8 238.499 41.3 237.199C43.7 235.799 46.1 234.899 47.8 234.399C49.5 233.899 50.7 233.799 50.7 233.799C50.7 233.899 49.6 234.199 47.9 234.799C46.2 235.399 43.9 236.299 41.5 237.599C39.1 238.899 37.1 240.399 35.7 241.499C34.3 242.599 33.4 243.399 33.4 243.299V243.299Z" fill="#263238"/>
<path d="M494.4 109.601L502.4 95.1013C498.7 89.3013 496.6 82.4013 496.5 75.0013C496.3 53.7013 513.4 36.3013 534.7 36.1013C556 35.9013 573.4 53.0013 573.6 74.2013C573.8 95.5013 556.7 113.001 535.4 113.201C526.5 113.201 518.3 110.301 511.8 105.301L494.4 109.601Z" fill="white"/>
<path d="M494.4 109.601C495.3 109.401 500.7 108.001 511.7 105.201V105.401L511 104.601L511.8 105.201C514 106.901 516.7 108.501 519.8 109.801C522.9 111.201 526.4 112.201 530.3 112.701C532.2 112.901 534.3 113.001 536.4 112.901C537.4 112.801 538.5 112.801 539.5 112.701C540.567 112.501 541.633 112.334 542.7 112.201C547 111.301 551.4 109.601 555.5 107.001C559.6 104.401 563.4 100.901 566.4 96.6009C569.4 92.3009 571.6 87.301 572.7 81.801C573.7 76.301 573.5 70.501 572 64.901C570.5 59.301 567.8 53.8009 563.7 49.3009L562.1 47.6009C561.6 47.0009 561 46.6009 560.5 46.0009C559.9 45.6009 559.3 45.0009 558.7 44.6009L556.9 43.201C556.3 42.701 555.6 42.4009 555 42.0009L553 40.8009C552.333 40.4676 551.667 40.1676 551 39.901C550.3 39.601 549.7 39.2009 549 39.0009C543.4 36.8009 537.5 36.0009 531.9 36.5009C526.2 37.0009 520.8 38.6009 516.2 41.3009C511.6 43.9009 507.7 47.4009 504.7 51.2009C501.7 55.1009 499.6 59.401 498.3 63.701C497 67.901 496.7 72.2009 496.7 76.1009C497 84.0009 499.7 90.5009 502.5 95.0009L502.6 95.1009L502.5 95.2009C497.3 104.401 494.8 108.801 494.4 109.601C494.8 108.801 497.3 104.301 502.3 95.1009V95.2009C499.4 90.6009 496.7 84.1009 496.4 76.1009C496.3 72.2009 496.6 67.9009 497.9 63.5009C499.2 59.2009 501.3 54.9009 504.4 51.0009C507.4 47.0009 511.3 43.5009 516 40.8009C520.7 38.2009 526.1 36.5009 531.8 36.0009C537.5 35.5009 543.5 36.3009 549.1 38.5009C549.9 38.7009 550.5 39.101 551.2 39.401C551.867 39.7343 552.567 40.0676 553.3 40.401L555.2 41.5009C555.9 41.9009 556.6 42.3009 557.2 42.8009L559 44.1009C559.7 44.6009 560.2 45.2009 560.8 45.7009C561.4 46.2009 562 46.7009 562.5 47.2009L564.1 49.0009C568.2 53.5009 571 59.1009 572.5 64.7009C574 70.5009 574.2 76.401 573.2 81.901C572.1 87.401 569.8 92.501 566.8 96.901C563.7 101.201 559.9 104.701 555.8 107.301C551.6 110.001 547.2 111.701 542.8 112.601C541.733 112.734 540.667 112.901 539.6 113.101C538.5 113.201 537.4 113.201 536.4 113.301C534.3 113.401 532.2 113.301 530.3 113.001C526.3 112.601 522.8 111.501 519.7 110.101C516.5 108.801 513.9 107.101 511.7 105.401L511.9 105.201L512 105.401L511.8 105.501C500.7 108.101 495.3 109.401 494.4 109.601V109.601Z" fill="#263238"/>
<path d="M533.7 58.6017C536.5 58.5017 543.1 60.2017 543.1 67.5017C543.167 72.6351 540.9 75.8017 536.3 77.0017V83.6017L531.4 83.7017L531.3 72.4017C534.7 73.0017 536.5 71.7017 537.3 70.3017C538.1 69.0017 538.2 67.5017 537.7 66.2017C537.2 65.1017 536 63.6017 533.7 63.6017C530.767 63.7351 529.333 65.2017 529.4 68.0017H524.4C524.2 59.2017 531.5 58.6017 533.7 58.6017Z" fill="#F97316"/>
<path d="M536.5 90.702H531.4V86.002H536.4L536.5 90.702Z" fill="#F97316"/>
</svg>
